<svg version="1.1" id="Layer_1" xmlns="http://www.w3.org/2000/svg" xmlns:xlink="http://www.w3.org/1999/xlink" x="0px" y="0px"
	 width="100%" viewBox="0 0 800 640" enable-background="new 0 0 800 640" xml:space="preserve">
<path fill="#000000" opacity="1.000000" stroke="none" 
	d="
M801.000000,292.531372 
	C799.365784,292.752045 797.719788,292.563843 796.099487,292.245148 
	C790.966125,291.235413 789.567078,287.720520 792.597290,283.533356 
	C795.250793,279.866699 794.608582,277.861725 790.024841,276.224243 
	C781.294373,273.105438 772.633972,274.538300 764.114380,277.099304 
	C756.643677,279.345001 749.232605,281.816223 741.893250,284.459900 
	C738.355042,285.734375 736.097595,284.898773 734.667480,281.555054 
	C733.052124,277.778046 729.844604,274.774261 729.161133,270.517639 
	C731.024902,268.386627 733.584900,268.136597 735.952698,267.526581 
	C749.307922,264.085724 762.397644,259.773895 775.513428,255.545105 
	C779.238770,254.343979 782.254028,252.978424 779.091858,248.259521 
	C778.130127,246.824387 778.559570,244.948212 780.122070,243.810364 
	C781.600525,242.733658 783.026733,243.455093 784.225098,244.415024 
	C789.668579,248.775482 795.658508,252.465714 800.731201,257.806122 
	C801.000000,260.041656 801.000000,262.083344 800.697266,264.484131 
	C797.760132,264.694550 795.702942,266.055115 792.781799,267.324036 
	C796.062927,268.392426 798.531433,269.196228 801.000000,270.000000 
	C801.000000,277.354248 801.000000,284.708496 801.000000,292.531372 
z"/>
<path fill="#000000" opacity="1.000000" stroke="none" 
	d="
M500.409790,590.458740 
	C494.523438,594.581116 488.909668,598.469788 483.317322,602.389099 
	C482.508545,602.955933 481.441528,603.520081 481.103027,604.337646 
	C475.529968,617.798523 462.207336,622.045410 451.362823,629.055908 
	C443.699463,634.010010 435.306946,637.662903 425.952881,638.904236 
	C420.730225,639.597229 415.988251,638.100891 411.203491,637.113831 
	C373.127289,629.259216 335.017883,621.528931 297.263763,612.208374 
	C283.822723,608.890137 276.858429,601.873901 275.646362,591.696655 
	C274.836731,584.898376 274.569946,578.101501 274.635925,571.265625 
	C274.728210,561.709412 274.587677,561.936035 265.699768,558.923706 
	C245.704742,552.147034 226.472015,552.922424 208.074463,563.950500 
	C207.223389,564.460632 206.251923,564.766357 205.351486,565.198425 
	C202.880356,566.384460 200.371155,566.627441 198.538132,564.323059 
	C196.906067,562.271301 197.430588,559.855835 198.740112,557.770569 
	C203.378983,550.383362 208.947601,543.795166 215.733932,538.263306 
	C231.220078,525.639648 249.115952,519.821899 268.913788,519.931152 
	C273.831451,519.958313 275.167542,518.116638 274.612366,513.759216 
	C274.170197,510.288727 273.687012,506.811920 274.271820,503.306274 
	C274.521179,501.811371 273.778656,500.748016 272.782684,499.791595 
	C257.352570,484.974304 244.912094,467.539185 230.674301,451.673126 
	C217.764771,437.287262 204.811584,422.953156 191.240219,409.184570 
	C185.850693,403.716766 185.862656,400.757660 191.735519,396.081451 
	C214.448303,377.996735 235.575378,358.153290 256.633331,338.213135 
	C266.928162,328.464752 278.137695,319.878998 290.288971,312.431458 
	C314.401245,297.653015 339.464081,296.653107 365.496338,306.138641 
	C369.561829,307.620026 373.630798,309.109222 377.612732,310.796448 
	C380.489532,312.015411 382.246735,311.359680 382.486847,308.219208 
	C383.284821,297.781738 383.855865,287.326508 384.703491,276.893524 
	C385.028320,272.895477 382.293976,272.345215 379.559631,271.465790 
	C364.352264,266.574707 353.405792,256.949738 347.973328,241.815933 
	C343.357849,228.958160 343.717438,215.663284 346.154572,202.409958 
	C348.343445,190.506577 351.591583,178.788834 352.497711,166.664673 
	C352.785522,162.813339 351.640594,159.101852 350.881317,155.358109 
	C350.532532,153.638519 349.158203,152.013351 350.533630,149.449844 
	C362.443024,152.604431 370.972931,160.844299 379.852631,169.654541 
	C381.890442,166.100189 383.683136,162.810928 385.640137,159.622528 
	C386.763733,157.791992 388.018768,156.003555 389.452362,154.410004 
	C392.314148,151.228928 394.970398,151.233856 397.471527,155.053070 
	C400.103790,159.072449 402.985046,162.928741 406.026367,167.237152 
	C412.519775,161.554123 418.462158,155.427536 426.226868,151.803619 
	C428.836060,150.585861 431.571808,147.589325 434.335327,149.550751 
	C436.802582,151.301895 434.641632,154.623337 434.162201,157.057678 
	C431.869141,168.700806 434.852142,179.877396 436.700256,191.156235 
	C439.092987,205.758957 442.190521,220.371353 438.302734,235.139847 
	C433.340851,253.988464 421.782166,266.822662 402.709991,271.977905 
	C398.380890,273.148071 396.670502,275.196716 396.323425,279.382812 
	C395.458588,289.813538 394.499512,300.239777 393.342255,310.641541 
	C392.786926,315.632874 394.296295,318.424500 399.276520,320.447693 
	C416.955109,327.629547 434.227203,327.510834 451.436615,319.172546 
	C460.424957,314.817566 469.204041,310.053162 478.534637,306.377106 
	C505.199738,295.871704 530.588684,298.081940 554.911194,313.274994 
	C570.129272,322.780945 583.557922,334.486725 596.334839,346.945160 
	C614.341736,364.503296 631.719971,382.733917 652.970398,396.605774 
	C657.569641,399.608124 657.427612,403.163849 653.088013,407.869354 
	C645.973267,415.584106 638.887085,423.327179 631.664062,430.939880 
	C611.230347,452.476166 593.278992,476.126129 573.924744,498.580444 
	C570.690186,502.333038 567.418396,506.053497 563.828979,510.173157 
	C566.270691,511.004730 568.139648,510.549377 570.050354,510.250214 
	C583.570862,508.133179 597.118713,507.084808 610.746460,509.309509 
	C613.986511,509.838379 617.476868,510.486816 617.895996,514.305115 
	C618.342773,518.375122 614.844360,519.930298 611.703186,521.138977 
	C596.598511,526.951172 582.028198,533.874390 567.899536,541.759155 
	C548.012207,552.857727 530.565613,567.354431 512.679749,581.245789 
	C508.735138,584.309448 504.688751,587.241943 500.409790,590.458740 
M507.430420,529.861206 
	C514.583862,525.902893 522.100708,522.724915 529.668823,519.684937 
	C541.190125,515.057007 551.050293,508.020233 559.028259,498.633606 
	C576.282227,478.333130 593.136719,457.693268 610.375000,437.379333 
	C617.327759,429.186066 624.857727,421.482574 632.254395,413.415070 
	C630.442566,413.112610 629.046143,413.588593 627.595703,413.959778 
	C618.309387,416.335907 608.837646,416.806274 599.345825,416.052490 
	C577.289551,414.300964 555.714233,409.354218 533.922546,405.850433 
	C514.040955,402.653778 494.268280,402.310364 474.405182,406.034393 
	C459.382324,408.850922 445.325623,414.339203 431.534363,420.624512 
	C425.550476,423.351685 419.771881,423.834290 413.800293,420.890228 
	C411.117340,419.567474 408.247955,418.976776 404.971466,418.838318 
	C405.111450,420.056854 405.147003,421.029724 405.342346,421.969391 
	C409.605988,442.479675 412.361084,463.219513 413.934540,484.080139 
	C414.347321,489.553284 416.647034,490.969849 421.335541,491.711487 
	C434.615112,493.812134 447.934143,495.828491 461.059204,498.695007 
	C474.635559,501.660126 482.106415,510.846039 483.388245,524.622192 
	C483.921967,530.357971 484.218872,536.115784 484.708466,543.070374 
	C492.144043,537.799805 499.496368,534.067627 507.430420,529.861206 
M542.243103,371.599426 
	C536.700623,380.126160 529.532654,387.088623 520.052063,393.275513 
	C541.812805,395.022705 561.770203,399.368530 581.914001,402.507965 
	C598.444336,405.084198 615.003601,405.725708 631.573792,402.800629 
	C633.644775,402.434998 635.789673,402.169342 637.192627,399.849213 
	C614.266418,382.345764 595.507568,360.728271 574.357544,341.678680 
	C565.925171,334.083649 556.771912,327.434418 546.855835,321.827026 
	C525.601807,309.808289 503.822845,307.860931 481.334564,318.054718 
	C472.844055,321.903412 464.467163,326.007568 455.928955,329.745056 
	C440.169891,336.643433 423.942596,340.025848 406.873505,335.203674 
	C402.299347,333.911469 397.824188,332.268890 393.473175,330.842743 
	C391.926971,332.683441 392.276398,334.429718 392.378296,336.027740 
	C393.170898,348.457550 393.522156,360.948547 395.598938,373.241547 
	C397.173889,382.563934 399.434204,391.775635 401.558746,400.997589 
	C402.432892,404.791870 407.857147,408.733765 411.825317,408.340668 
	C416.142151,407.913025 414.043060,403.861206 415.086975,401.562866 
	C415.550476,400.542419 415.465027,399.282349 415.694519,398.144318 
	C418.105011,386.189667 420.882751,374.362244 428.622284,364.468658 
	C429.969757,362.746185 431.064453,360.484924 434.722015,360.239532 
	C431.549286,376.847198 424.704895,392.315857 424.437103,409.645782 
	C430.830933,407.326324 433.696869,402.788055 436.675262,398.407654 
	C447.063110,383.129974 456.596191,367.217682 470.213623,354.382141 
	C474.617371,350.231293 478.787354,345.853912 484.668671,343.391174 
	C474.810211,363.548706 459.816223,380.389496 449.396454,400.280945 
	C475.835693,386.008698 498.899109,367.370911 520.229309,346.106506 
	C522.118408,349.436249 520.685669,351.414612 519.636047,353.465393 
	C513.985962,364.504150 505.608002,373.246613 496.260834,381.155426 
	C491.613708,385.087402 486.873901,388.909882 481.085999,393.680389 
	C487.233368,392.659424 492.054352,392.225189 496.676300,391.024689 
	C512.659180,386.873352 526.219116,378.294525 538.520874,367.510895 
	C540.287537,365.962280 541.953613,363.764526 544.867615,364.931671 
	C545.530701,367.644226 543.501953,369.090118 542.243103,371.599426 
M431.611725,529.717163 
	C427.397980,527.985107 422.863281,527.855713 418.459747,527.057861 
	C375.476593,519.269958 332.452393,511.686157 289.889801,501.765076 
	C286.910461,501.070618 285.434937,501.862793 285.262512,505.015472 
	C285.044373,509.002655 284.440704,512.980835 284.422241,516.964783 
	C284.325775,537.795959 283.725677,558.653015 284.549072,579.451599 
	C285.234711,596.771545 288.920166,598.550964 301.573273,601.773438 
	C302.700378,602.060547 303.810913,602.412903 304.938843,602.696350 
	C336.212555,610.553894 367.820129,616.909607 399.369781,623.509644 
	C407.628876,625.237488 415.759857,627.935730 424.381195,627.716187 
	C429.188477,627.593811 432.306793,625.411316 433.507507,620.784180 
	C434.088715,618.544434 434.449524,616.211121 434.594391,613.900330 
	C436.052643,590.639099 437.208099,567.362366 436.601837,544.047119 
	C436.473480,539.110718 436.067780,534.025085 431.611725,529.717163 
M273.773651,338.285767 
	C251.035110,357.708099 230.962540,380.017853 206.400879,399.238770 
	C232.102768,407.811768 256.332336,406.511169 281.667084,399.668304 
	C274.742767,393.697754 269.142242,387.890137 267.986969,378.269531 
	C274.746399,380.845123 278.456665,386.617371 284.144226,389.447968 
	C290.205292,392.464539 296.289368,394.804962 303.225861,394.124023 
	C309.614990,393.496857 316.019501,393.026123 323.290070,392.412872 
	C317.067230,387.356445 311.007904,383.430237 307.070251,377.325287 
	C303.258118,371.414978 300.006622,365.327515 301.776917,357.452271 
	C316.709747,381.241974 339.021057,390.563599 366.719208,392.888367 
	C357.050415,378.480377 348.074982,365.226532 344.548584,348.933044 
	C348.634674,348.669586 349.772491,351.156311 351.251160,353.039124 
	C361.741882,366.397400 371.796631,380.079498 381.527313,394.000458 
	C383.299835,396.536255 385.508057,398.304138 388.785431,398.285797 
	C388.926178,397.759979 389.130737,397.426941 389.073792,397.147125 
	C384.528534,374.803711 381.039886,352.339081 381.722687,329.439362 
	C381.819397,326.195984 380.455048,324.523315 377.678284,323.430908 
	C373.033020,321.603455 368.420441,319.692505 363.800079,317.802155 
	C341.709625,308.763947 320.074310,309.204010 298.932037,320.817352 
	C290.137665,325.648102 282.021301,331.436615 273.773651,338.285767 
M362.030640,403.518860 
	C354.746826,402.812347 347.473969,401.667999 340.177032,401.484985 
	C321.537384,401.017639 303.547455,405.106812 285.668945,409.905914 
	C267.418152,414.805023 248.974945,417.875793 229.934448,415.445709 
	C223.078659,414.570679 216.470306,412.507172 208.833160,411.281982 
	C218.696075,421.967896 228.069366,431.854767 237.138153,442.013489 
	C249.896057,456.304657 262.478699,470.753754 275.017517,485.238068 
	C277.801056,488.453491 280.313324,489.324249 284.494995,487.406738 
	C297.822357,481.295380 311.966003,478.613525 326.633209,478.565674 
	C328.858398,478.558411 331.287506,479.272156 333.952332,477.225067 
	C324.763550,458.092804 319.094788,437.357300 307.181671,419.151825 
	C312.276123,416.393677 316.680786,418.106445 320.978973,418.725006 
	C335.774719,420.854401 349.868591,425.081177 362.628906,433.156525 
	C380.896179,444.716980 392.317383,461.451813 399.463959,481.491882 
	C400.176300,483.489380 400.260162,486.110229 402.862976,487.044067 
	C404.114075,485.724945 403.712677,484.322662 403.598267,483.076630 
	C401.623749,461.569397 398.556946,440.234711 393.991364,419.103638 
	C393.066010,414.820892 391.080811,412.436920 387.268036,410.702606 
	C379.460022,407.151062 371.186401,405.408539 362.030640,403.518860 
M393.354736,228.747818 
	C393.277832,230.577957 393.436493,232.455032 393.082886,234.230057 
	C391.632568,241.510956 392.330444,248.852493 392.480804,256.150574 
	C392.609192,262.384705 393.904175,263.219513 399.833282,261.612366 
	C420.132660,256.110016 431.282104,236.005524 429.303253,215.129013 
	C428.521881,206.885559 427.083221,198.685822 425.567017,190.536285 
	C424.277985,183.607819 424.039795,176.457001 421.541046,168.796661 
	C416.292419,173.182877 411.876831,177.377686 408.390778,182.400284 
	C398.922699,196.041763 394.952301,211.555664 393.354736,228.747818 
M446.345062,538.711426 
	C446.731995,565.789734 446.039185,592.841064 443.843842,620.790527 
	C451.845825,615.421082 460.040253,612.046326 466.601959,606.049561 
	C469.010651,603.848206 470.417267,601.240662 470.795776,597.844849 
	C471.715668,589.592957 472.559082,581.352478 472.683716,573.038269 
	C472.805817,564.892944 472.707306,556.758972 473.440948,548.602234 
	C474.109436,541.170044 473.824768,533.624634 473.550995,526.144104 
	C473.343231,520.467773 471.237793,519.270020 466.195099,521.349609 
	C462.042816,523.062012 458.054565,525.266785 453.786530,526.580750 
	C448.003265,528.361206 444.464294,531.141663 446.345062,538.711426 
M552.320129,524.027710 
	C531.620544,529.785889 512.384155,538.521606 494.969788,551.293579 
	C487.430817,556.822815 481.261475,562.250366 482.611481,573.052917 
	C483.241913,578.097351 482.278046,583.463318 482.335663,590.040039 
	C490.685059,583.960022 498.070068,578.679138 505.352112,573.259888 
	C522.167053,560.746155 538.044067,546.947327 556.067383,536.091736 
	C567.059753,529.470947 578.336243,523.383972 590.453552,518.917664 
	C577.688477,518.539978 565.279114,520.318420 552.320129,524.027710 
M385.335632,205.217896 
	C381.995087,191.439636 375.887695,179.418472 363.592316,169.955124 
	C361.788422,183.500549 358.604950,195.531021 356.429504,207.758102 
	C353.800507,222.534073 355.133728,236.596283 364.827240,248.884460 
	C369.209717,254.440018 374.906219,258.047546 381.953613,260.870209 
	C381.615540,249.162140 381.326691,238.410828 382.583069,227.661575 
	C383.427979,220.432907 386.288971,213.482819 385.335632,205.217896 
M408.268707,513.979370 
	C416.599640,515.468994 424.905701,517.126709 433.273865,518.364807 
	C436.574127,518.853088 439.672577,521.408447 442.891113,520.403564 
	C449.495880,518.341431 455.891388,515.604309 462.040100,512.131836 
	C460.727173,509.874603 458.897491,509.653748 457.124908,509.331207 
	C449.778564,507.994598 442.447693,506.564087 435.082001,505.344055 
	C405.431793,500.432983 375.715240,495.897278 346.135895,490.594147 
	C329.957306,487.693604 314.238953,488.481201 297.151459,493.068054 
	C310.655121,495.614563 322.851105,497.715454 334.958801,500.239838 
	C359.021423,505.256805 383.212646,509.562958 408.268707,513.979370 
M325.831360,432.307129 
	C326.640778,433.949585 327.472046,435.581696 328.256165,437.236145 
	C334.381531,450.160950 338.012756,464.163513 345.273315,476.601074 
	C346.192078,478.174927 346.752106,480.113770 348.844818,480.471283 
	C355.985199,481.691101 363.140656,482.822937 370.695404,484.054352 
	C369.114197,474.813171 363.369843,467.665100 362.003815,457.654541 
	C370.617767,464.285706 375.565643,471.921234 379.240723,480.292877 
	C381.395355,485.200958 384.437653,486.640503 389.225098,485.569550 
	C389.337677,485.229858 389.473236,485.043610 389.429901,484.919922 
	C379.066711,455.319275 358.814178,436.879028 327.912628,430.512665 
	C327.029236,430.330658 325.356506,429.456818 325.831360,432.307129 
M227.941528,542.403015 
	C226.982620,543.057800 225.950516,543.629822 225.087738,544.393188 
	C224.385529,545.014526 222.908081,544.957397 223.117493,546.467957 
	C240.400345,541.937866 257.191650,544.802307 273.908234,550.546448 
	C275.268921,545.609558 274.543121,541.303101 274.615906,537.064575 
	C274.731567,530.324585 274.575592,530.501587 268.093292,530.270142 
	C253.550003,529.750916 240.913452,535.346741 227.941528,542.403015 
M395.764740,182.362320 
	C398.419067,175.768738 397.785004,172.904266 392.583008,167.988739 
	C385.876678,176.405060 387.681885,181.021988 392.449097,189.961685 
	C393.515411,187.576370 394.520569,185.327774 395.764740,182.362320 
z"/>
<path fill="#000000" opacity="1.000000" stroke="none" 
	d="
M411.146423,18.102985 
	C415.660736,27.417746 413.750793,36.666542 406.011658,43.730030 
	C402.437164,46.992420 398.569397,49.887493 394.279694,52.170063 
	C392.510254,53.111584 391.091583,54.166637 392.393921,56.434929 
	C396.509796,63.603577 400.325653,70.981041 406.444214,77.172844 
	C409.545959,73.449593 412.147339,69.842888 413.935120,65.683090 
	C415.194916,62.751820 415.141815,60.507065 411.277344,59.842476 
	C409.486481,59.534489 407.518646,59.130108 407.609344,56.602665 
	C407.698730,54.111290 409.125610,52.299931 411.397369,51.927143 
	C420.721375,50.397091 430.124451,49.818825 439.709381,49.824081 
	C440.436676,54.361610 439.115601,57.155407 435.052917,58.221462 
	C431.399414,59.180153 429.127228,61.480911 427.310577,64.723282 
	C423.976624,70.673882 420.468048,76.540924 416.730835,82.245346 
	C414.845032,85.123810 415.733246,86.569763 418.199127,88.285164 
	C424.112579,92.398865 430.210327,93.773285 436.516937,89.878899 
	C439.317932,92.594498 438.214233,94.882309 436.876556,97.052086 
	C430.736603,107.011414 416.220673,109.468338 407.095337,102.131081 
	C406.186798,101.400566 405.206451,100.727348 404.426880,99.874489 
	C402.080841,97.307968 400.174042,97.719986 397.835480,100.135941 
	C390.617584,107.592804 381.876038,111.150169 371.323212,110.420448 
	C360.522217,109.673553 352.192566,101.128433 351.560822,90.347603 
	C350.739471,76.331139 357.423676,66.398201 368.246643,58.836288 
	C372.049011,56.179600 373.077637,53.682667 371.719482,49.331783 
	C369.974304,43.741035 369.716309,37.903778 370.699341,32.074448 
	C372.386932,22.066969 378.235382,15.437285 387.763977,12.509519 
	C396.288788,9.890158 404.614929,9.913178 411.146423,18.102985 
M385.457428,76.977715 
	C383.005737,73.084030 380.554077,69.190338 377.772797,64.773232 
	C371.297882,70.104836 367.931366,76.204376 368.400909,84.067627 
	C368.694183,88.978554 370.598175,93.231506 375.534943,95.147835 
	C381.224060,97.356239 390.689728,94.438660 394.892181,89.482056 
	C391.868103,85.516525 388.848724,81.557106 385.457428,76.977715 
M389.378326,21.801640 
	C384.163208,27.480095 383.683350,37.626320 388.422028,46.116615 
	C395.159851,41.738041 400.188477,36.491478 399.644287,27.723372 
	C399.253845,21.431593 396.097260,19.356190 389.378326,21.801640 
z"/>
<path fill="#000000" opacity="1.000000" stroke="none" 
	d="
M218.995239,199.994904 
	C210.670563,205.534470 202.582214,210.796158 194.513199,216.087341 
	C192.544220,217.378479 190.847885,217.264175 189.176849,215.529449 
	C187.484985,213.773087 187.317383,211.846832 188.929611,210.204865 
	C192.542938,206.524811 191.358765,202.900284 189.679123,198.793747 
	C181.929260,179.846008 175.321945,160.477036 168.857330,141.060211 
	C168.239502,139.204498 167.954910,137.150085 166.149063,135.841141 
	C163.808914,135.882553 163.066895,138.202927 161.390350,139.165314 
	C160.077377,139.919006 158.807251,140.909103 157.266006,139.865433 
	C155.662354,138.779510 155.191193,136.956741 155.943497,135.432541 
	C159.348236,128.534317 163.284073,121.966660 169.807602,117.474709 
	C171.687790,116.180046 173.622253,116.487762 175.217102,118.169243 
	C176.570709,119.596390 177.861237,121.083366 179.376251,122.761650 
	C181.052780,120.457420 180.958694,117.862350 181.709351,115.577370 
	C185.952805,102.660217 201.734879,93.986595 214.179565,108.088554 
	C225.919342,121.391739 230.094101,148.525253 216.559341,163.961136 
	C212.843353,168.199081 208.616516,171.601166 203.268250,173.314499 
	C199.668671,174.467621 199.000946,176.386719 200.432831,179.660873 
	C201.964905,183.164169 203.494400,186.694336 204.642563,190.333435 
	C206.146774,195.100998 208.779312,196.553055 213.679047,195.000137 
	C218.370453,193.513199 219.521652,194.741837 218.995239,199.994904 
M210.281418,149.065704 
	C209.965149,138.716278 207.856613,128.965149 200.642136,121.004395 
	C196.315323,116.230003 191.250305,116.847847 188.120667,122.480164 
	C187.066223,124.377800 186.421890,126.424484 186.251282,128.628433 
	C185.357544,140.174225 189.700958,150.454254 194.162033,160.645309 
	C195.454208,163.597229 198.317627,164.142624 201.434952,163.160828 
	C208.008331,161.090546 209.205200,155.591583 210.281418,149.065704 
z"/>
<path fill="#000000" opacity="1.000000" stroke="none" 
	d="
M692.796753,139.755554 
	C696.474792,137.125931 699.819397,134.640625 703.262695,132.300537 
	C706.954224,129.791748 709.292542,126.998451 706.441406,122.387825 
	C705.505798,120.874794 705.441040,119.194939 706.751404,117.757095 
	C707.955994,116.435387 709.548584,116.469337 710.883423,117.237564 
	C718.492065,121.616524 725.858521,126.345253 732.830200,133.140015 
	C720.247253,141.229919 708.421509,149.334213 696.274170,158.892380 
	C704.826660,158.134827 711.915344,159.204926 718.602417,162.662766 
	C730.739502,168.938782 731.642761,179.787689 720.567810,187.523285 
	C711.969543,193.528900 703.334839,199.482239 694.737793,205.489563 
	C693.946045,206.042770 693.310547,206.819412 692.656677,207.440857 
	C693.120117,210.156021 697.013367,212.014160 694.959473,214.700714 
	C692.795532,217.531342 689.114868,217.551758 685.716003,217.144638 
	C682.889160,216.806046 680.146118,216.069458 677.659058,214.638748 
	C670.080688,210.279312 669.361450,201.853546 676.401794,196.766968 
	C683.417542,191.698135 690.743774,187.058929 697.937988,182.237503 
	C699.598267,181.124832 701.348633,180.132202 702.927307,178.915436 
	C705.247925,177.126831 708.691711,175.607254 708.008423,172.152786 
	C707.225403,168.194656 703.173767,167.827606 699.982117,167.406769 
	C692.296021,166.393341 685.058105,167.948166 678.672485,172.539001 
	C671.237305,177.884384 663.752441,183.172058 656.514709,188.776093 
	C652.680664,191.744736 649.697510,191.679535 645.971985,188.500992 
	C637.535583,181.303284 637.212708,181.146301 645.953308,174.497269 
	C661.329712,162.800262 676.974426,151.455872 692.796753,139.755554 
z"/>
<path fill="#000000" opacity="1.000000" stroke="none" 
	d="
M141.304474,239.654999 
	C131.670776,224.045181 122.173264,208.779251 112.849380,193.408035 
	C110.513138,189.556519 108.444710,188.160339 105.157387,192.371231 
	C103.717979,194.215027 101.704193,195.082581 99.456940,193.511063 
	C97.016411,191.804382 97.965134,189.910202 99.120766,187.867508 
	C101.251221,184.101715 103.161179,180.211807 105.260239,176.427536 
	C110.448540,167.073929 110.967537,166.926834 119.944641,171.954437 
	C121.117226,170.116882 121.185303,167.974731 121.682678,165.956100 
	C122.356209,163.222504 122.914383,160.401825 124.042992,157.848801 
	C130.085800,144.179367 144.616821,141.814270 154.806015,152.709930 
	C162.076996,160.485031 166.347229,169.756439 168.253204,180.110367 
	C171.204758,196.144424 166.505005,209.028458 152.060638,217.555374 
	C149.595978,219.010315 149.319550,220.550842 150.683746,222.828934 
	C152.992874,226.685013 155.365280,230.512024 157.470001,234.479156 
	C159.502396,238.310028 162.343613,239.704315 166.510239,238.386459 
	C168.092316,237.886063 169.896286,237.191345 171.028091,239.003357 
	C172.142151,240.786942 170.600876,242.063080 169.721741,243.446274 
	C165.099243,250.719086 158.121002,255.765564 152.253799,261.855438 
	C150.157303,264.031494 147.768219,262.198639 148.301605,260.080536 
	C150.406097,251.723740 144.896072,246.262421 141.304474,239.654999 
M129.829041,186.630997 
	C132.745010,192.814713 136.229553,198.667358 140.083939,204.307831 
	C144.008057,210.050339 148.614288,210.203598 152.776840,204.599014 
	C154.690918,202.021835 156.052094,199.139252 155.637619,195.794464 
	C154.176331,184.001389 148.995346,173.869949 140.915833,165.393372 
	C136.960815,161.244003 132.150360,162.487915 129.560974,167.708679 
	C126.584290,173.710281 126.439529,179.852386 129.829041,186.630997 
z"/>
<path fill="#000000" opacity="1.000000" stroke="none" 
	d="
M615.564941,116.546616 
	C610.161194,122.902458 604.984070,128.982346 599.803406,135.059158 
	C598.613892,136.454437 597.114258,137.856293 597.629944,139.845840 
	C598.255981,142.261154 600.565613,141.444794 602.255066,141.782761 
	C603.803772,142.092590 606.006042,141.556610 606.428772,143.667892 
	C606.908813,146.065628 604.911804,147.272766 603.078979,148.057297 
	C595.540588,151.283981 588.056824,150.586426 580.954468,146.872360 
	C576.785217,144.692123 576.114990,141.069626 578.418457,136.753952 
	C579.038757,135.591858 579.951355,134.559753 579.819153,132.993744 
	C577.898010,131.897018 576.398193,133.359619 574.824829,133.961533 
	C570.259949,135.707886 565.617126,136.787155 560.685913,136.333176 
	C550.092407,135.357910 542.835999,124.645264 547.106018,114.954109 
	C555.365051,96.209763 569.413269,84.085266 590.102417,80.975685 
	C600.345093,79.436211 611.994263,85.273590 617.447571,93.814766 
	C618.821289,94.395447 619.982361,93.255775 621.272034,93.265152 
	C623.910828,93.284348 626.202515,94.197266 627.605347,96.543144 
	C628.930115,98.758560 627.930298,100.706284 626.537903,102.497215 
	C622.963806,107.094566 619.373840,111.679588 615.564941,116.546616 
M587.582703,119.098396 
	C593.072021,115.219170 597.361572,110.159843 601.555847,104.991417 
	C603.945190,102.047089 606.396301,98.938820 603.726379,95.206421 
	C601.176147,91.641418 597.191345,90.509705 593.060059,91.930435 
	C579.833435,96.479004 571.172668,105.981743 565.911926,118.565468 
	C563.804810,123.605667 567.830200,127.410751 573.148132,126.145172 
	C578.249817,124.931061 582.685303,122.356644 587.582703,119.098396 
z"/>
<path fill="#000000" opacity="1.000000" stroke="none" 
	d="
M502.896301,97.676369 
	C499.846710,104.187027 500.149719,104.551033 506.565277,106.391449 
	C518.074890,109.693207 528.578613,108.979660 537.203674,99.580215 
	C539.341125,97.250908 541.784973,96.824768 544.279480,98.749115 
	C546.895081,100.766808 544.528259,102.601685 543.709290,104.398346 
	C540.996094,110.350876 536.776062,115.338829 533.154663,120.710686 
	C531.892334,122.583160 530.336304,123.169807 528.031433,122.681412 
	C509.017853,118.652504 490.290985,113.462830 471.437073,108.790001 
	C470.042542,108.444374 468.299774,108.104462 468.641632,105.979927 
	C468.936432,104.147972 469.467468,102.406624 471.387360,101.533539 
	C472.793518,100.894066 474.260223,100.673035 475.773041,100.876274 
	C478.928955,101.300240 480.811493,99.702507 482.018219,97.015358 
	C491.079987,76.837006 500.089874,56.635124 509.232635,36.493546 
	C511.169342,32.226994 508.434601,30.810749 505.509613,29.301411 
	C503.336334,28.179960 500.546417,27.566372 502.067230,23.973129 
	C503.478333,20.639025 505.284943,18.948969 509.314301,20.258142 
	C518.950439,23.388985 528.728271,26.081808 538.387939,29.143766 
	C540.375488,29.773783 543.774292,29.957127 542.973389,33.237007 
	C542.207214,36.374283 539.421021,38.609604 536.191284,37.761257 
	C530.929993,36.379314 529.212891,39.020302 527.389587,43.174644 
	C519.434631,61.299129 511.196960,79.299500 502.896301,97.676369 
z"/>
<path fill="#000000" opacity="1.000000" stroke="none" 
	d="
M94.079842,256.099121 
	C98.937775,260.907745 103.455582,265.575439 108.183632,270.019470 
	C110.379616,272.083527 110.734993,274.047668 109.332695,276.633911 
	C100.843964,292.289490 93.354088,308.443237 85.542000,324.436646 
	C84.610115,326.344421 83.722969,328.628082 80.821983,327.829407 
	C78.010620,327.055420 77.089401,324.758148 77.770164,322.363068 
	C79.280014,317.051086 76.203178,314.355408 72.566170,311.649628 
	C56.278854,299.532684 40.009708,287.390839 23.800739,275.169434 
	C20.323942,272.547943 17.242464,272.241760 14.103832,275.536713 
	C13.423336,276.251099 12.532520,276.763428 11.748200,277.381042 
	C10.471789,278.386169 9.094649,278.932922 7.674128,277.788666 
	C6.391696,276.755646 6.751771,275.410278 7.349816,274.151794 
	C12.273225,263.791351 16.271912,252.978256 22.452335,243.233368 
	C23.360060,241.802139 24.315626,240.267654 26.402943,241.368912 
	C28.396381,242.420639 30.989569,242.967941 30.917715,245.997940 
	C30.898424,246.811508 30.747993,247.722336 30.350193,248.410797 
	C26.883202,254.410965 30.299126,257.679688 34.864536,260.921906 
	C50.600033,272.096863 66.175819,283.496460 81.890182,294.701477 
	C87.313965,298.568878 88.147369,298.256775 90.597855,291.902313 
	C94.728294,281.191528 96.493340,270.640930 87.787575,261.059418 
	C86.310883,259.434174 87.162224,258.032715 88.385162,256.689056 
	C89.994980,254.920273 91.639503,253.684708 94.079842,256.099121 
z"/>
<path fill="#000000" opacity="1.000000" stroke="none" 
	d="
M702.037964,221.376678 
	C708.830322,208.318985 720.540649,203.471481 733.660400,201.822723 
	C748.430481,199.966583 761.145935,204.474487 771.110352,216.157883 
	C779.283264,225.740646 775.929077,237.161743 763.737976,240.451874 
	C755.124695,242.776474 747.657349,239.893051 740.435425,235.761551 
	C735.643677,233.020325 731.235718,229.702133 727.582764,225.537247 
	C725.135010,222.746521 723.243713,223.291229 721.137695,225.881805 
	C716.074463,232.109924 716.870850,239.727234 723.157776,244.768738 
	C726.997925,247.848145 731.447388,249.605499 736.068298,251.088409 
	C737.727295,251.620789 740.039001,251.938705 739.842957,254.363754 
	C739.669189,256.512604 737.738525,257.074738 735.869080,257.521057 
	C724.412048,260.256317 715.022034,255.996048 707.501892,247.965530 
	C700.638733,240.636536 697.805237,231.746078 702.037964,221.376678 
M759.317993,218.159302 
	C750.234131,212.552383 739.341675,213.029251 733.921875,219.271149 
	C737.830688,225.137314 751.002563,229.473801 757.508240,227.036377 
	C761.857849,225.406723 762.565796,222.914124 759.317993,218.159302 
z"/>
<path fill="#000000" opacity="1.000000" stroke="none" 
	d="
M266.512024,84.907394 
	C270.542816,71.049240 277.279816,60.080490 291.960968,56.365417 
	C298.727509,54.653149 305.326416,55.464542 309.600403,61.304863 
	C314.091492,67.441826 314.726898,74.569611 310.983612,81.570831 
	C307.910767,87.318130 303.067963,91.368500 297.644012,94.769478 
	C293.978088,97.068138 290.304596,99.364166 286.535248,101.484985 
	C284.246918,102.772530 284.141357,104.242874 285.214996,106.415512 
	C288.180450,112.416534 295.270935,114.711945 301.383301,111.493622 
	C306.541138,108.777893 310.118256,104.401306 313.599670,99.898201 
	C314.651672,98.537476 315.620819,96.553398 317.959167,97.518021 
	C320.225037,98.452751 320.427338,100.424446 320.226501,102.539673 
	C318.781708,117.756538 299.017059,132.009552 284.395813,128.346497 
	C276.223846,126.299156 271.430389,120.596313 268.390442,113.164734 
	C264.690521,104.119827 264.210693,94.804665 266.512024,84.907394 
M297.777283,72.926491 
	C297.681976,69.752182 296.239075,67.486320 293.135406,66.605003 
	C290.705231,65.914932 288.628448,66.821754 286.719177,68.415909 
	C282.656006,71.808456 279.180206,88.022354 282.651825,94.148209 
	C291.807739,91.088234 297.684357,83.207268 297.777283,72.926491 
z"/>
<path fill="#000000" opacity="1.000000" stroke="none" 
	d="
M639.126587,112.239990 
	C640.323792,108.591003 643.248230,107.027725 645.875549,108.090279 
	C653.575745,111.204453 659.661865,108.099945 665.987061,104.419220 
	C671.615417,101.144058 676.805420,102.576126 681.848633,108.548065 
	C678.108459,111.714645 674.466309,115.042419 670.559875,118.023727 
	C667.733826,120.180473 667.975220,121.948677 670.492371,123.940643 
	C672.709900,125.695457 674.972778,127.394020 677.162109,129.182938 
	C678.531616,130.301971 680.753235,131.373688 679.785217,133.447876 
	C678.760803,135.642792 676.536560,136.754608 673.930786,136.214798 
	C669.806030,135.360321 665.949402,133.722015 662.551208,131.292709 
	C659.317993,128.981400 657.077820,129.628220 654.449768,132.390991 
	C647.796143,139.385498 640.811096,146.063721 634.093384,152.998947 
	C632.246582,154.905609 629.169983,156.895752 631.166077,160.107300 
	C632.948669,162.975357 636.216248,163.007355 639.294800,162.437439 
	C640.740723,162.169754 642.083313,161.312134 643.769043,161.747803 
	C645.406433,164.533493 643.752930,166.414810 641.800293,168.063751 
	C633.578857,175.006592 616.819702,172.160141 611.210022,162.914490 
	C608.036194,157.683426 608.524048,153.313919 613.322388,148.553772 
	C621.356812,140.583313 629.476562,132.692856 637.753296,124.975616 
	C641.279663,121.687683 644.933411,118.894188 639.165039,114.505951 
	C638.824097,114.246529 639.039001,113.256355 639.126587,112.239990 
z"/>
<path fill="#000000" opacity="1.000000" stroke="none" 
	d="
M99.140366,242.823334 
	C94.562920,237.086517 90.132416,231.686478 85.893944,226.139709 
	C84.005775,223.668671 82.484955,223.076721 79.858528,225.340302 
	C77.909950,227.019684 75.677338,230.483276 72.793098,228.255432 
	C70.154121,226.217056 73.105705,223.396927 73.800957,221.013184 
	C75.100128,216.558823 76.632561,212.167526 78.201180,207.797821 
	C80.752708,200.690063 85.940895,199.661087 90.843193,205.366074 
	C98.750252,214.567764 106.408676,223.985672 114.417915,233.096146 
	C120.134796,239.599091 120.314568,239.441055 127.307884,234.542892 
	C129.672836,235.483597 130.712708,237.523041 131.180984,239.840256 
	C132.365234,245.700485 127.617226,256.892853 122.544334,260.139099 
	C119.121254,262.329590 115.914925,261.637451 113.003532,258.977783 
	C107.814034,254.236893 103.763023,248.520279 99.140366,242.823334 
z"/>
<path fill="#000000" opacity="1.000000" stroke="none" 
	d="
M266.962219,128.918091 
	C262.821625,138.882019 254.479553,143.502060 245.293976,146.906067 
	C242.239700,148.037933 241.833633,145.086441 241.267410,143.102951 
	C238.620880,133.831741 237.357849,124.281036 235.664734,114.815979 
	C234.539780,108.527069 233.262817,102.265350 232.106735,96.265625 
	C229.629852,95.884056 228.549866,97.113716 227.249634,97.773956 
	C225.794357,98.512917 224.347198,99.817078 222.700607,98.437424 
	C221.261124,97.231316 221.565506,95.405144 221.598434,93.764511 
	C221.633728,92.006844 222.550110,90.575821 223.678070,89.332657 
	C227.846985,84.737968 232.475220,80.739174 238.209549,78.153282 
	C243.790512,75.636543 245.150375,76.304222 246.310379,82.252174 
	C248.627319,94.132599 250.958740,106.010216 253.298080,117.886246 
	C253.650787,119.676895 254.170273,121.438377 254.452667,123.238441 
	C255.085693,127.273285 257.167206,128.609909 261.093414,127.219658 
	C263.189484,126.477440 265.372345,126.171730 266.962219,128.918091 
z"/>
<path fill="#000000" opacity="1.000000" stroke="none" 
	d="
M240.816345,54.787575 
	C242.008606,59.388405 241.071411,63.056911 237.771179,65.963585 
	C233.635056,69.606445 227.584702,69.625473 224.278122,66.079903 
	C220.545563,62.077572 220.803589,55.479408 224.837112,51.785049 
	C229.280533,47.715275 235.096802,47.752831 239.014328,51.936691 
	C239.679382,52.646969 240.106781,53.579784 240.816345,54.787575 
z"/>
<path fill="#000000" opacity="1.000000" stroke="none" 
	d="
M58.026016,199.636444 
	C55.282341,191.464401 60.075996,184.003815 67.323387,184.768951 
	C71.754456,185.236755 75.287796,187.270187 76.214348,192.092361 
	C77.080704,196.601288 74.668777,201.595047 70.894646,203.516479 
	C66.654251,205.675293 61.889355,204.353668 58.026016,199.636444 
z"/>
<path fill="#000000" opacity="1.000000" stroke="none" 
	d="
M507.121033,463.419312 
	C507.732697,471.669586 507.069092,479.058533 499.607117,484.465424 
	C499.569061,466.613800 495.034698,449.824799 488.901398,433.429413 
	C491.958130,431.602386 493.237396,433.895050 494.623932,435.294586 
	C502.210815,442.952759 505.741333,452.471497 507.121033,463.419312 
z"/>
<path fill="#000000" opacity="1.000000" stroke="none" 
	d="
M453.226471,471.244690 
	C453.370850,476.953339 454.433502,482.306427 451.863525,487.348694 
	C451.046997,488.950684 450.502563,490.736542 447.456421,492.055878 
	C446.376068,474.821777 441.723083,458.866364 435.295685,442.816681 
	C439.948181,442.424377 441.764465,445.206512 443.559509,447.577606 
	C448.770142,454.460327 451.722534,462.339386 453.226471,471.244690 
z"/>
<path fill="#000000" opacity="1.000000" stroke="none" 
	d="
M330.877197,599.334351 
	C322.661194,597.618713 314.826660,596.118042 307.089539,594.220337 
	C299.131958,592.268616 294.908295,587.662415 294.839233,579.421387 
	C294.705536,563.463074 293.690033,547.464294 295.695953,531.541687 
	C296.201660,527.527283 297.591125,523.874939 301.556244,520.346863 
	C303.565918,527.482239 304.017761,533.999146 303.807892,540.766113 
	C303.437439,552.712341 302.729156,564.668457 304.061615,576.632935 
	C304.590363,581.380676 306.945251,583.609619 311.301270,584.839050 
	C327.299255,589.354431 343.679443,592.109863 359.884064,595.671509 
	C375.451599,599.092957 391.129395,602.040527 406.495239,606.337952 
	C407.822693,606.709229 409.631683,606.377686 410.223450,608.386780 
	C408.901489,610.680176 406.592407,610.183289 404.532196,610.338623 
	C393.132904,611.198120 381.983459,609.120300 370.871429,607.153870 
	C357.636993,604.811890 344.487671,601.989258 330.877197,599.334351 
z"/>
<path fill="#000000" opacity="1.000000" stroke="none" 
	d="
M366.997009,581.911316 
	C361.478394,584.009033 358.898041,582.491943 358.704315,577.329712 
	C358.562225,573.543518 358.676483,569.747742 358.676483,565.649658 
	C354.705261,565.900269 351.264374,567.972351 347.667023,569.399109 
	C343.693298,570.975159 340.722626,570.325562 339.196381,566.194397 
	C337.676025,562.079041 341.049774,561.104919 343.752960,559.866943 
	C346.437531,558.637451 349.558319,558.421143 352.423615,556.086792 
	C349.645294,553.771667 347.003052,551.609253 344.405304,549.394714 
	C341.630463,547.029236 340.576660,544.214050 343.095184,541.133789 
	C345.742310,537.896179 348.180847,540.235535 350.402069,541.906677 
	C353.016724,543.873840 355.478851,546.043823 358.243195,548.320312 
	C360.182129,544.818237 358.659698,541.637390 358.956024,538.587952 
	C359.148346,536.608826 358.938690,534.568848 359.313751,532.634583 
	C359.862885,529.802673 361.948608,528.348145 364.732361,528.444580 
	C367.359619,528.535706 368.420380,530.641296 368.616394,532.897278 
	C369.032715,537.689026 369.185516,542.503723 369.492432,548.158203 
	C372.799866,545.858215 375.677490,543.799011 378.617706,541.833435 
	C380.493286,540.579651 382.555908,538.471130 384.639954,541.212708 
	C386.485352,543.640381 386.884644,546.328247 384.387512,548.859314 
	C381.787750,551.494385 378.783875,553.559204 375.653076,555.465149 
	C374.930573,555.904968 374.084473,556.141724 372.538788,556.788452 
	C377.744568,559.865479 381.528229,561.912231 385.089722,564.291626 
	C386.728333,565.386353 389.276093,566.742126 387.229889,569.397583 
	C385.658234,571.437134 384.043030,573.944031 380.688812,572.186584 
	C377.209137,570.363464 373.684601,568.625977 369.893341,566.706055 
	C368.643921,571.878967 369.217773,576.978699 366.997009,581.911316 
z"/>
</svg>