<svg version="1.1" id="Layer_1" xmlns="http://www.w3.org/2000/svg" xmlns:xlink="http://www.w3.org/1999/xlink" x="0px" y="0px"
	 width="100%" viewBox="0 0 816 608" enable-background="new 0 0 816 608" xml:space="preserve">
<path fill="#000000" opacity="1.000000" stroke="none" 
	d="
M817.000000,320.531464 
	C814.326050,317.740753 811.183838,318.075348 807.611084,319.422577 
	C789.712952,326.171783 771.769104,332.799652 753.834290,339.451324 
	C751.551697,340.297882 749.169617,341.846588 747.028198,339.201172 
	C745.030151,336.732727 746.458191,334.521057 747.640625,332.291046 
	C758.393799,312.011688 769.137268,291.727173 780.074524,271.083710 
	C769.225769,274.520203 759.214478,279.397034 748.872620,283.412231 
	C746.235718,284.435974 743.659058,285.613922 741.038269,286.680573 
	C737.521362,288.111908 734.374084,289.588348 735.169556,294.488647 
	C735.588928,297.072113 733.364014,298.345032 731.118408,298.737183 
	C728.804016,299.141388 728.597229,296.939331 728.056580,295.488220 
	C726.141418,290.348724 724.766541,285.012024 722.282043,280.078796 
	C721.174255,277.879333 722.104309,276.200165 724.023315,275.001007 
	C725.960327,273.790558 727.855164,273.619812 729.140625,275.900757 
	C731.041992,279.274780 733.487732,278.566467 736.358154,277.285583 
	C750.497925,270.976074 764.650818,264.692444 778.884460,258.598969 
	C782.990723,256.841003 786.057556,254.530899 787.019226,249.954681 
	C787.503967,247.648132 788.829956,245.998016 791.386658,245.863373 
	C793.853882,245.733444 794.154907,247.876297 794.914856,249.462387 
	C802.722900,265.759369 802.795898,265.802826 794.388306,281.620148 
	C788.057861,293.529572 781.493408,305.314514 775.042725,317.160126 
	C774.587280,317.996490 774.211182,318.876038 773.297424,320.777435 
	C784.187805,316.307037 794.668152,313.718872 804.266785,308.726868 
	C807.177551,307.213043 808.395203,304.757141 809.165100,301.639435 
	C810.266113,297.180725 813.285828,296.447296 816.798523,299.739258 
	C817.000000,306.687653 817.000000,313.375275 817.000000,320.531464 
z"/>
<path fill="#000000" opacity="1.000000" stroke="none" 
	d="
M110.552444,455.530884 
	C124.131523,443.599152 140.134293,437.603180 157.356537,436.973541 
	C184.603668,435.977448 208.787354,427.477905 227.761597,408.333313 
	C243.268356,392.687408 261.749603,386.526154 282.414398,383.585480 
	C290.454590,382.441345 298.518494,381.179688 306.309540,378.645386 
	C309.495087,377.609192 311.219696,376.634644 309.292542,372.732971 
	C306.739899,367.565002 308.003387,362.325317 310.771759,357.471649 
	C312.374115,354.662292 314.833069,354.042389 317.588409,355.536652 
	C320.565552,357.151245 317.999756,358.883545 317.439606,360.544220 
	C316.908447,362.118927 316.088745,363.644928 315.846283,365.259979 
	C314.804779,372.198395 318.561920,375.303864 324.919891,372.926178 
	C328.683929,371.518494 332.314087,369.844177 335.523987,367.410126 
	C337.605438,365.831787 339.314941,363.751953 338.234100,361.014099 
	C337.086426,358.106934 335.680328,355.696411 331.650879,355.213104 
	C310.708557,352.701141 290.241272,354.946991 269.782593,359.621002 
	C247.008926,364.823883 224.500336,362.771881 202.493454,355.050995 
	C201.399994,354.667358 200.371521,354.089630 199.330704,353.566620 
	C196.900009,352.345337 194.994934,350.680725 196.263321,347.692108 
	C197.485703,344.811890 199.747559,345.463440 202.188812,346.199860 
	C209.787857,348.492126 217.464813,350.508362 226.493927,351.607544 
	C217.710281,343.982727 213.061264,334.882935 209.629547,325.059753 
	C209.138733,323.654785 208.654144,322.190186 208.542145,320.724518 
	C208.394363,318.790924 209.205032,316.928253 211.028931,316.225616 
	C213.072311,315.438446 213.895355,317.354553 214.752625,318.752930 
	C218.325226,324.580414 220.389648,331.168976 224.088364,336.959961 
	C226.761734,341.145569 229.614761,345.140533 233.419037,349.714111 
	C233.762054,336.908600 231.253662,325.575439 227.454819,314.469666 
	C226.809631,312.583496 225.525833,310.877533 227.147614,308.913177 
	C228.832367,306.872498 230.829117,307.340027 233.062103,307.858490 
	C241.512299,309.820465 250.039185,311.342438 258.768951,310.199493 
	C269.431396,308.803558 279.131439,310.381714 287.871094,317.430176 
	C294.345154,322.651428 302.627930,325.059875 309.493103,329.867523 
	C313.428375,332.623322 316.752441,335.855408 318.889221,340.022186 
	C320.862671,343.870331 323.808960,345.668243 327.840363,346.304321 
	C331.658630,346.906799 335.510193,346.918365 339.299347,346.469604 
	C345.646606,345.717865 347.660278,341.612152 344.727264,335.822754 
	C342.872498,332.161682 339.823883,329.507233 336.674866,327.048828 
	C322.758484,316.184601 308.690918,305.512482 294.851044,294.552429 
	C286.239380,287.732727 275.916077,286.635803 265.722961,285.546631 
	C249.323837,283.794312 233.156326,281.017822 217.203232,276.877960 
	C214.639053,276.212524 211.996353,275.804718 209.367188,275.443329 
	C201.852448,274.410400 195.794327,276.763123 190.799789,282.691406 
	C176.595306,299.551453 165.456131,318.609161 152.122818,336.089447 
	C132.964523,361.206451 111.787483,384.422180 87.813957,405.038025 
	C86.931404,405.796936 85.982330,406.478973 85.058525,407.189392 
	C82.686073,409.013702 80.574608,409.002930 78.583252,406.507294 
	C76.562462,403.974762 77.861382,402.273132 79.741875,400.547760 
	C86.861710,394.015198 94.018692,387.521454 101.052124,380.896759 
	C127.059570,356.400848 147.970154,327.755768 168.135986,298.492432 
	C172.668823,291.914673 177.691635,285.675507 182.456985,279.256775 
	C190.772690,268.055847 201.371613,263.694550 215.220871,267.493805 
	C235.942352,273.178314 257.194519,276.024658 278.478577,278.619843 
	C287.826233,279.759613 296.109741,283.352753 303.126312,289.715576 
	C315.493805,300.930725 329.622314,309.898407 342.452759,320.524078 
	C345.154572,322.761597 347.777588,325.051178 349.942291,327.841461 
	C353.618835,332.580475 356.349792,337.601776 354.810150,344.429016 
	C363.385956,345.289642 371.658478,345.286407 379.867554,344.329803 
	C386.260162,343.584900 392.783569,343.188416 398.706268,339.989380 
	C401.338531,338.567566 402.964294,337.489014 401.976410,333.953186 
	C400.661377,329.246521 402.562286,324.814484 404.394135,320.460175 
	C414.829956,295.654388 428.470856,272.724304 443.137451,250.171967 
	C450.724854,238.505035 459.183167,230.411301 472.352905,225.681641 
	C490.090607,219.311462 506.854492,210.413101 521.665283,198.577087 
	C536.601257,186.641052 551.054993,184.941833 567.058960,196.747055 
	C579.903992,206.222076 593.147339,215.283798 607.271240,222.834412 
	C622.394958,230.919525 637.456970,239.169418 653.427063,245.541351 
	C656.480530,246.759644 658.391541,248.633087 657.090698,251.968964 
	C655.729553,255.459656 652.889893,254.449799 650.323975,253.483841 
	C623.345703,243.327850 598.573303,229.088425 574.891174,212.807587 
	C568.854309,208.657318 562.692871,204.679932 556.484741,200.789017 
	C548.861084,196.010956 541.345581,195.711792 533.648987,201.096664 
	C517.947876,212.081848 501.944153,222.607101 484.249939,230.225327 
	C477.828674,232.990021 471.344330,235.608002 464.895813,238.309708 
	C462.099152,239.481384 459.312714,240.827835 457.781647,243.566711 
	C449.475464,258.425690 438.706940,271.689117 430.093597,286.333038 
	C422.730713,298.851013 417.786194,312.546661 411.651581,325.664642 
	C410.798889,327.488007 409.351257,329.707550 411.223907,331.730927 
	C413.109589,333.768311 415.338623,332.303680 417.307373,331.744324 
	C426.901947,329.018311 434.323547,322.895874 439.400360,314.752350 
	C447.616852,301.572723 457.995514,289.843994 465.683716,276.485596 
	C472.056030,265.413635 479.882141,259.491089 492.618500,257.781372 
	C505.646393,256.032501 517.753174,250.309601 529.782898,244.954132 
	C531.770081,244.069458 534.189209,241.943756 535.791565,245.121719 
	C537.199951,247.915039 536.735596,251.267838 533.610901,252.366699 
	C526.519043,254.860672 526.595520,259.662720 528.254517,265.525330 
	C529.198730,268.861694 529.720764,272.317535 530.527771,276.172455 
	C533.129150,275.064789 534.273315,273.024719 535.706116,271.329010 
	C541.298462,264.710663 547.009460,258.193695 553.314880,252.244720 
	C555.097107,250.563248 557.220154,247.398483 559.932007,250.113449 
	C562.772644,252.957321 561.680176,256.348907 558.850037,258.877655 
	C550.220703,266.587708 543.372253,275.844727 536.130066,284.762024 
	C535.120972,286.004517 533.776184,287.123260 534.214050,289.501709 
	C541.044189,287.151123 547.742188,284.805450 554.470215,282.549042 
	C557.465942,281.544403 560.482788,280.538940 563.563354,279.872742 
	C565.856689,279.376801 568.399597,279.213470 569.139893,282.414551 
	C569.785767,285.207123 568.400940,286.952911 565.898682,287.784485 
	C558.952393,290.092957 551.934937,292.190338 545.009888,294.558960 
	C530.512878,299.517578 517.269775,307.495575 502.606934,312.114136 
	C492.825592,315.195068 482.629486,315.498077 472.660919,317.285614 
	C467.382812,318.232086 462.324005,319.887421 457.429535,321.973602 
	C453.858673,323.495514 450.867767,326.006165 448.719604,329.270386 
	C446.854034,332.105072 444.007935,334.946503 446.155762,338.740417 
	C448.460815,342.812134 452.351868,344.288177 456.833679,343.583801 
	C461.094879,342.914093 465.298248,341.841858 469.497131,340.823273 
	C471.955963,340.226776 473.425659,338.630707 474.060791,336.065704 
	C474.540649,334.127777 475.459595,332.053528 477.911011,332.095825 
	C480.143127,332.134308 480.969482,334.082458 481.264252,335.893311 
	C481.963867,340.191376 484.581543,340.908142 488.419281,340.621185 
	C498.712921,339.851318 508.273651,337.982574 518.048218,333.411743 
	C533.742188,326.072845 550.918762,323.270996 568.642883,325.334198 
	C578.397949,326.469727 587.966248,328.856140 597.739807,329.514618 
	C610.424255,330.369141 622.466980,327.311005 634.148926,322.455139 
	C648.415527,316.524872 662.426575,309.785370 678.105896,308.089691 
	C681.274841,307.746979 684.412476,307.607452 687.569763,307.771820 
	C689.373596,307.865723 690.860107,308.694733 691.076233,310.677856 
	C691.296875,312.701691 690.393799,314.361877 688.469543,315.043671 
	C686.760864,315.649109 684.918518,316.060486 683.111084,316.174377 
	C670.438904,316.973053 658.739319,321.279144 647.262573,326.219482 
	C632.546936,332.554016 617.882996,339.057220 601.360901,338.235107 
	C591.059509,337.722595 580.943848,335.602844 570.767334,334.025085 
	C562.158691,332.690369 553.540039,332.931305 544.949524,334.442139 
	C541.793701,334.997192 541.125610,337.016113 541.083313,339.837738 
	C541.000366,345.380432 540.114136,350.806885 537.346985,355.711121 
	C534.373962,360.980255 530.097046,364.571991 523.723206,364.199341 
	C517.317749,363.824860 513.895752,359.613586 512.551147,353.780182 
	C511.311035,348.400146 508.362244,346.347260 502.954803,347.360718 
	C495.553070,348.747986 488.031891,348.364929 479.949341,348.514221 
	C483.637878,353.164093 487.449280,357.191956 489.950897,362.214874 
	C510.516113,403.507568 488.116241,454.589417 443.502899,466.444061 
	C410.802002,475.133301 368.772858,453.139313 364.454071,412.773132 
	C361.895142,388.855957 368.144836,368.764496 387.030945,351.583618 
	C372.421631,354.821411 358.776062,352.264221 345.365173,353.914948 
	C345.277740,355.074005 345.100677,355.594818 345.225861,356.028351 
	C348.755585,368.252197 344.201569,372.381042 335.035400,377.194244 
	C333.120453,378.199799 331.239044,379.510712 329.183990,379.964569 
	C321.772675,381.601501 320.253967,386.809631 320.293365,393.360565 
	C320.327423,399.017609 320.256531,404.697693 319.777588,410.328949 
	C319.328552,415.608521 317.033234,420.081390 311.562561,421.773773 
	C306.364227,423.381897 301.696838,422.060852 297.822906,418.155457 
	C297.127686,417.454620 296.378540,416.807251 295.342438,415.845764 
	C292.742645,421.019745 290.907288,426.704559 284.685181,428.259247 
	C278.582336,429.784119 273.615662,427.364838 268.972900,422.927826 
	C266.156738,426.942383 263.480652,431.021942 258.361694,432.153839 
	C249.763931,434.055023 243.464630,429.228821 242.734558,419.975525 
	C242.327774,414.819855 242.813599,409.713684 244.879196,403.783417 
	C234.496185,413.768982 224.711014,422.797455 213.242020,429.892273 
	C198.255508,439.163116 182.053925,443.490631 164.565781,444.411285 
	C143.861176,445.501251 124.948936,451.417358 110.462967,467.400909 
	C108.810005,469.224731 107.307556,470.192932 104.969131,468.349884 
	C102.625587,466.502808 102.394783,464.587341 104.254013,462.417969 
	C106.200401,460.146912 108.271690,457.982880 110.552444,455.530884 
M478.665985,395.693237 
	C478.292969,392.731995 478.249146,389.683624 477.492432,386.823883 
	C473.226227,370.701569 465.584564,357.239990 448.771637,351.144470 
	C443.869110,349.367065 440.123505,346.289825 438.473419,341.040558 
	C438.003479,339.545715 438.188538,337.650055 436.053345,336.366394 
	C428.066040,339.179810 419.858734,342.291534 411.509674,344.959442 
	C399.189117,348.896362 392.187347,358.008179 387.217316,369.179535 
	C385.868927,372.210388 384.857513,375.401733 383.838135,378.566681 
	C376.079041,402.656708 381.973083,427.809082 400.804504,441.687164 
	C422.819031,457.911133 448.803925,456.285278 466.406189,434.276337 
	C475.185059,423.299652 478.758728,410.532257 478.665985,395.693237 
M480.293396,290.868073 
	C483.336426,287.023956 487.771240,285.415894 492.066254,283.629608 
	C500.678131,280.048004 509.079071,276.038574 517.377441,271.778961 
	C522.599731,269.098297 519.602600,265.075287 519.057617,261.809875 
	C518.437622,258.095245 515.280396,260.117188 513.366394,260.663696 
	C504.260468,263.263611 495.287384,266.486267 485.930328,267.949615 
	C481.556091,268.633698 479.082123,270.602234 477.198242,274.264862 
	C474.067139,280.352417 470.207672,285.975006 465.799408,291.226379 
	C458.933228,299.405792 452.985352,308.182617 447.940796,318.626221 
	C454.334778,314.013306 460.592407,311.276306 467.306915,309.850739 
	C471.275848,309.008148 473.795227,307.659515 474.543091,303.183014 
	C475.251587,298.942200 477.230591,294.976288 480.293396,290.868073 
M238.472717,324.016724 
	C238.775620,330.578705 242.559937,333.276184 248.766907,333.359924 
	C250.592026,333.384552 252.421814,333.515198 254.237579,333.708710 
	C264.578705,334.810791 275.804474,333.643982 284.187103,341.106293 
	C292.608276,348.602936 301.599304,346.314423 311.002655,345.159363 
	C310.013519,341.552277 307.680084,339.593140 304.905029,337.895416 
	C296.114014,332.517303 286.862183,327.865784 278.630524,321.609039 
	C275.538849,319.259125 272.204346,318.328369 268.423340,318.349518 
	C259.936615,318.396942 251.442825,318.562683 242.965393,318.278076 
	C239.039841,318.146271 237.827637,319.612457 238.472717,324.016724 
M507.777252,285.405060 
	C502.777618,287.621918 497.904572,290.215790 492.742615,291.949249 
	C487.601074,293.675873 485.029785,297.318817 483.127136,301.910309 
	C481.546875,305.723755 482.770416,307.174438 486.826141,306.736023 
	C497.703552,305.560272 507.945038,302.323456 517.278625,296.692383 
	C524.017700,292.626587 525.216919,285.298584 520.643494,278.605438 
	C516.605835,280.760559 512.533875,282.934021 507.777252,285.405060 
M272.534760,398.295868 
	C271.167267,404.756866 270.135742,411.152863 275.177490,416.714966 
	C277.054962,418.786224 278.512848,421.554901 282.028717,420.619659 
	C285.359436,419.733643 286.992554,417.029755 287.450043,414.047363 
	C288.623474,406.398651 289.365173,398.683685 290.353760,390.370575 
	C286.250366,391.167633 282.861755,391.740021 279.516174,392.501495 
	C276.575134,393.170898 273.589508,393.929749 272.534760,398.295868 
M280.066772,348.454620 
	C268.431183,340.884552 254.926056,343.345734 241.998474,340.665924 
	C241.998474,343.865234 242.377609,346.406830 241.913620,348.783844 
	C241.129562,352.800568 242.967636,353.803589 246.447006,353.846130 
	C252.606323,353.921509 258.752136,353.340088 264.699554,352.040009 
	C269.920319,350.898773 275.570068,351.824402 280.066772,348.454620 
M298.895111,389.687958 
	C297.228180,397.788055 297.837585,405.475861 303.265228,412.161896 
	C304.638794,413.853912 306.445709,415.225555 308.882385,414.543640 
	C311.204102,413.893829 311.480591,411.828186 311.892761,409.849152 
	C313.494141,402.160431 312.169312,394.415833 312.974518,386.436401 
	C307.869537,386.337646 303.693390,387.816406 298.895111,389.687958 
M470.525299,356.042358 
	C489.685699,379.535217 490.478363,404.924347 478.271667,431.735565 
	C483.956085,423.312012 488.121613,414.368408 489.293671,404.270599 
	C491.557922,384.763489 487.181305,367.321564 473.119476,352.927582 
	C471.014984,350.773438 468.775665,349.540619 465.452301,350.786926 
	C467.096710,352.467560 468.583893,353.987518 470.525299,356.042358 
M251.051804,410.572815 
	C250.205597,412.994141 250.263596,415.508575 250.457596,417.995392 
	C250.655792,420.536041 251.171768,423.183105 253.922043,424.141388 
	C256.859924,425.165070 258.484436,422.891571 260.062988,420.951111 
	C261.769012,418.853882 263.141846,416.468140 263.464172,413.810944 
	C264.192352,407.808716 262.762177,401.683411 265.518799,395.382324 
	C255.041321,398.329620 254.140274,399.294220 251.051804,410.572815 
M399.933258,450.742828 
	C375.081879,433.038086 369.126770,408.725739 375.103577,380.206787 
	C368.535278,401.957275 369.388702,422.598145 385.147003,440.571686 
	C398.676178,456.002747 416.263641,461.316864 436.175995,460.101562 
	C423.442596,460.776917 411.686066,457.247009 399.933258,450.742828 
M521.642639,353.761780 
	C525.246704,356.391571 528.211121,356.052399 529.998840,352.232819 
	C532.008972,347.938049 533.458923,343.371826 532.293579,338.492676 
	C520.789978,337.984070 517.555298,342.156860 521.016602,352.692841 
	C521.067322,352.847198 521.171143,352.984070 521.642639,353.761780 
z"/>
<path fill="#000000" opacity="1.000000" stroke="none" 
	d="
M125.827759,567.882935 
	C139.576263,562.769714 148.988632,554.011719 153.995132,540.318542 
	C159.431168,525.450500 167.826035,512.264221 179.012344,500.978485 
	C181.697998,498.268951 184.579163,495.671722 188.834961,495.650787 
	C193.223511,495.629181 195.332367,497.575623 195.295853,501.967865 
	C195.261490,506.098236 193.629257,509.827057 191.598862,513.243835 
	C184.166367,525.751526 175.795181,537.555481 164.399979,546.859497 
	C161.100677,549.553284 158.351730,552.586609 156.937485,556.643738 
	C155.760727,560.019592 155.807236,563.484436 158.722443,565.823669 
	C161.569519,568.108276 163.982437,565.623596 166.285309,564.071716 
	C171.350739,560.658203 175.191315,556.267944 178.113129,550.810059 
	C182.473679,542.664551 188.925400,536.494324 197.587585,532.903809 
	C198.956497,532.336426 200.441437,531.817505 201.897842,531.738464 
	C205.471710,531.544495 209.534866,530.497437 211.564255,534.833008 
	C213.511765,538.993652 212.003006,542.580811 209.116577,545.775330 
	C203.155823,552.372131 195.907379,556.915771 187.338089,559.259827 
	C185.325745,559.810303 183.204819,560.029358 183.434052,562.787659 
	C183.650848,565.396179 185.538956,566.413818 187.854599,566.755310 
	C190.203415,567.101746 192.562103,566.983093 194.677353,565.827148 
	C201.725296,561.975464 208.356415,557.700439 212.831497,550.648010 
	C217.255371,543.676331 222.877701,537.796936 230.376312,533.980042 
	C233.072311,532.607727 235.891235,531.389221 238.935806,531.508118 
	C248.738525,531.891174 255.146042,534.747559 249.990707,546.527588 
	C247.218094,552.863037 243.833038,558.936157 241.275482,566.624084 
	C248.263290,562.647827 254.051392,558.982239 257.490509,552.576172 
	C261.497681,545.112061 266.400604,538.493591 274.119263,534.456543 
	C280.001587,531.379883 286.013672,530.537231 292.375946,533.098267 
	C297.891663,535.318542 299.151581,537.843689 296.693970,543.546448 
	C294.193268,549.349243 290.661987,554.684448 288.672333,560.724548 
	C288.084442,562.509216 286.226807,564.623718 288.237701,566.218201 
	C290.325867,567.873901 292.241913,565.829651 294.078613,564.798096 
	C304.468842,558.962830 308.776825,548.356689 314.437439,538.816467 
	C315.371246,537.242676 316.033173,535.488831 317.092682,534.013489 
	C318.288116,532.348633 319.865448,530.852417 322.127045,532.269531 
	C324.089172,533.499084 324.595123,535.267395 323.459656,537.437012 
	C322.785004,538.726135 322.280212,540.104248 321.474152,541.960083 
	C325.324860,540.391663 326.877930,536.898254 329.891235,535.257874 
	C330.768188,534.780518 331.570953,534.151306 332.476471,533.744812 
	C336.289246,532.032959 340.317474,529.827576 344.125458,533.199219 
	C348.088837,536.708435 346.087036,540.919006 344.353607,544.707092 
	C341.861603,550.152893 338.980743,555.420166 336.455994,560.852051 
	C335.741943,562.388367 334.371857,564.485535 336.256256,565.887268 
	C338.156250,567.300598 340.181213,565.825623 341.651978,564.619629 
	C346.799988,560.398804 351.880524,556.110046 354.935425,549.925537 
	C357.698700,544.331299 361.651764,539.309631 363.238159,533.252563 
	C361.965881,532.113892 360.769043,532.499268 359.629547,532.506531 
	C357.919189,532.517456 356.011749,532.569336 355.935760,530.238281 
	C355.866028,528.098511 357.824341,527.124084 359.345703,527.351196 
	C367.941956,528.634949 370.586884,522.201599 373.989777,516.573669 
	C375.450043,514.158691 377.063934,511.807312 378.857391,509.632660 
	C380.210938,507.991394 382.085480,507.156677 384.150787,508.625366 
	C386.090637,510.004791 385.542603,511.855072 384.782867,513.564514 
	C382.902191,517.796143 379.273743,521.080688 377.902191,526.390198 
	C381.470367,526.546021 384.868011,526.637817 388.256348,526.867126 
	C389.871155,526.976379 391.927704,526.927795 391.962280,529.247986 
	C391.992706,531.292358 390.131531,531.279358 388.665894,531.490906 
	C386.855286,531.752319 384.979218,532.394897 383.236023,532.144531 
	C375.718719,531.065125 371.706940,534.629639 368.745728,541.245239 
	C365.899139,547.604736 362.114899,553.546082 359.983093,560.260193 
	C359.356598,562.233276 358.756073,564.261780 360.455109,565.870239 
	C362.329834,567.644958 364.311859,566.286194 365.975800,565.359680 
	C371.168762,562.468018 374.962036,558.007751 378.682007,553.499512 
	C379.424194,552.600037 380.129181,551.667236 380.910736,550.803528 
	C382.173889,549.407715 383.691223,547.849426 385.537048,549.428284 
	C387.147736,550.805969 385.928650,552.629150 385.009735,553.926025 
	C379.874634,561.173096 374.227509,567.972778 366.143402,572.123047 
	C358.303162,576.148071 352.939728,573.376343 351.269379,564.259521 
	C347.392456,567.289246 344.101257,570.766541 339.786652,572.903748 
	C336.405548,574.578552 333.294922,574.397400 330.389465,572.316833 
	C327.566406,570.295227 326.819458,567.335266 327.277283,563.897034 
	C327.976318,558.647156 330.175568,554.048767 332.843811,549.578918 
	C334.604675,546.629150 336.163635,543.558899 337.958893,540.275818 
	C334.195923,538.712036 332.276794,540.949890 330.489227,542.602173 
	C322.154083,550.306458 314.338226,558.487488 308.231873,568.151611 
	C304.733826,573.687683 302.912170,573.642761 299.788147,568.044800 
	C286.777130,575.673279 283.427429,575.313354 279.816376,565.776733 
	C276.997314,566.090698 275.275757,568.305786 273.163727,569.776550 
	C264.614960,575.729675 259.256683,574.435913 254.535294,564.402100 
	C248.036880,571.372070 237.318756,572.453491 233.683975,583.153076 
	C231.301788,590.165466 226.154907,596.055176 220.484695,601.132202 
	C216.724289,604.499207 212.331543,606.314392 207.302505,606.246887 
	C200.790344,606.159485 197.450775,601.178040 199.430267,594.989258 
	C201.414383,588.785950 206.226196,585.216980 211.407059,582.130737 
	C215.974518,579.409912 220.602753,576.713745 225.661224,574.933838 
	C229.752457,573.494263 232.186188,570.631836 233.501312,565.904968 
	C228.580292,568.510864 224.873505,572.610535 219.591492,572.950684 
	C212.985367,573.375977 211.397995,567.885559 209.264145,562.873291 
	C205.027679,566.077515 201.033478,569.001709 196.505081,571.126770 
	C186.662247,575.745911 180.609589,574.173767 174.797684,565.029175 
	C172.463028,566.860779 170.218475,568.781372 167.815887,570.478210 
	C158.604919,576.983276 151.993668,574.601746 149.083054,563.812073 
	C148.956512,563.342957 148.683899,562.913269 148.224823,561.907837 
	C145.942322,563.754517 143.818710,565.501526 141.664566,567.210083 
	C134.628616,572.790649 126.918449,576.823242 117.810867,577.761292 
	C108.718643,578.697937 100.575569,576.609192 95.517883,568.630676 
	C90.423897,560.594849 91.552551,552.035706 96.135338,543.984863 
	C99.540367,538.003113 104.693993,533.858276 110.954063,531.064148 
	C112.919762,530.186829 114.880943,529.299377 117.159508,528.274780 
	C112.193802,516.715942 115.321495,507.274658 125.141975,500.285034 
	C132.987656,494.700989 141.904160,493.123932 151.259140,496.130432 
	C156.901749,497.943817 159.535278,502.053864 159.293686,507.937653 
	C159.049728,513.879456 154.259903,520.461304 149.335220,521.703979 
	C147.531250,522.159180 145.865341,522.011719 145.082687,520.194214 
	C144.420441,518.656372 144.289551,516.917175 145.847443,515.622742 
	C147.249832,514.457458 148.938095,513.519287 150.017670,512.110962 
	C151.496979,510.181244 153.226257,507.987610 152.046112,505.310974 
	C150.837814,502.570587 148.172348,501.721191 145.462875,501.466522 
	C136.578476,500.631531 125.756706,509.277008 124.487381,518.164001 
	C123.974564,521.754333 125.460342,524.361572 128.820587,525.726501 
	C131.438400,526.789917 134.164459,527.585205 136.791382,528.628174 
	C139.980270,529.894287 141.166351,532.420166 139.781647,535.455688 
	C138.352341,538.588989 135.680222,537.116577 133.792374,535.976929 
	C128.988205,533.076904 124.386703,534.393616 119.944649,536.431213 
	C111.256371,540.416626 104.082047,546.000305 103.352089,556.464600 
	C102.734230,565.321960 107.342659,569.754578 116.182274,569.725891 
	C119.401833,569.715393 122.434891,568.951660 125.827759,567.882935 
M242.075195,544.615845 
	C242.645935,542.821899 244.586517,541.077209 242.776154,539.137146 
	C241.021255,537.256531 238.711838,538.031677 236.678238,538.643188 
	C235.113358,539.113831 233.543182,539.852966 232.227829,540.817200 
	C226.650070,544.905884 222.094131,549.947266 219.248779,556.295654 
	C218.086975,558.887878 215.732071,562.044128 218.527603,564.545105 
	C221.686707,567.371399 224.772736,564.629700 227.483276,562.875061 
	C234.125656,558.575256 238.257904,552.165649 242.075195,544.615845 
M266.759308,553.285706 
	C266.028778,554.593140 265.097717,555.830505 264.611084,557.223145 
	C263.706146,559.812988 261.784424,562.847534 264.561401,565.056946 
	C267.309814,567.243530 269.849152,564.835876 272.211548,563.337952 
	C278.779175,559.173584 282.305084,552.384705 286.746765,546.396301 
	C288.253082,544.365479 289.821411,541.912964 288.036377,539.552612 
	C286.024323,536.892151 283.159973,538.272522 280.696289,539.192200 
	C274.168304,541.629211 270.669006,547.166687 266.759308,553.285706 
M166.467545,536.919067 
	C174.843338,526.767700 183.641312,516.890076 188.756332,503.569702 
	C180.429474,507.405945 167.281601,526.818787 162.317307,541.772339 
	C163.641464,540.182556 164.803558,538.787292 166.467545,536.919067 
M224.773758,584.704651 
	C225.192413,583.847778 226.041336,583.145508 225.617661,581.516724 
	C220.155701,584.793091 214.266098,587.023804 209.513123,591.228943 
	C207.355911,593.137512 204.664520,595.643555 206.767349,598.358521 
	C208.954391,601.182129 211.590714,598.242798 213.630554,596.882202 
	C218.125885,593.883545 221.436432,589.688660 224.773758,584.704651 
M200.341095,538.716248 
	C193.648911,541.718018 189.983459,547.414062 185.988525,554.080078 
	C197.136887,549.985046 203.576324,544.783142 205.142334,538.939026 
	C203.928223,537.679565 202.470413,538.110657 200.341095,538.716248 
z"/>
<path fill="#000000" opacity="1.000000" stroke="none" 
	d="
M630.433716,570.612793 
	C629.699768,571.075928 629.274536,571.340698 628.829773,571.567078 
	C618.856506,576.643188 614.051514,574.025208 612.185974,561.814331 
	C606.815063,566.881409 600.776245,570.279785 594.371399,572.979980 
	C585.416382,576.755310 577.886169,574.012817 573.207764,565.104492 
	C571.103455,566.680054 569.105957,568.312927 566.975037,569.747559 
	C557.208008,576.323242 551.613586,574.474304 548.157776,563.263733 
	C544.415344,566.189819 541.332764,569.767639 537.220642,571.992737 
	C528.440918,576.743591 522.286255,574.080139 520.145203,564.353821 
	C516.891174,566.746948 513.832886,569.257874 510.519867,571.369324 
	C505.919556,574.301208 500.560883,574.191833 497.525421,571.186646 
	C493.652313,567.352173 494.431610,563.066284 496.827911,558.820984 
	C499.036255,554.908875 501.274902,551.010498 503.626434,547.183594 
	C505.733521,543.754456 505.367279,541.254822 500.942596,539.678650 
	C497.851227,544.438110 494.818970,549.343201 491.549774,554.084961 
	C486.499451,561.410095 480.776459,568.148254 472.675232,572.269104 
	C467.355499,574.975098 461.824341,573.165588 460.227509,568.153198 
	C459.339203,565.364807 459.110046,562.275391 459.112946,559.322205 
	C459.115356,556.868103 459.712189,554.366028 460.364410,551.971985 
	C461.438477,548.029663 460.017303,545.702698 456.372253,544.089355 
	C452.820587,542.517395 450.474060,543.329712 448.390839,546.540100 
	C443.302246,554.381714 437.784790,561.921814 430.705872,568.126282 
	C424.606293,573.472412 418.145477,578.127075 409.346344,577.294128 
	C405.378326,576.918457 401.902954,575.565125 399.275177,572.462585 
	C397.424103,570.277039 397.867645,568.226807 399.711395,566.239624 
	C401.840576,563.944885 403.153015,565.682922 404.604919,567.107849 
	C409.017395,571.438232 413.610199,569.510925 417.902496,567.116577 
	C428.715820,561.084595 435.354034,551.064087 443.073242,540.755920 
	C433.568726,539.882080 426.162262,542.472473 419.485840,547.575256 
	C418.026093,548.690979 416.910797,551.452515 414.680267,549.298035 
	C412.847778,547.528015 413.648499,545.157166 415.138611,543.414368 
	C420.565826,537.066772 428.120056,533.227112 435.837555,534.111023 
	C445.457886,535.212891 450.248535,530.898438 455.147278,524.035828 
	C460.757355,516.176819 467.408295,509.096893 475.132172,503.156128 
	C478.734406,500.385498 482.632385,498.191681 487.128998,497.221741 
	C489.360626,496.740387 491.481506,496.753326 492.959808,498.866821 
	C494.351929,500.856995 493.412628,502.565765 492.366394,504.389709 
	C483.078430,520.581543 473.984253,536.877869 468.741852,554.950867 
	C467.719299,558.476013 465.085388,563.000671 469.092834,565.456421 
	C473.169708,567.954712 475.865784,563.321777 478.479889,560.863037 
	C485.091705,554.644348 489.752625,546.891235 494.614258,539.320435 
	C495.746002,537.557983 496.098358,535.625183 495.786255,533.573792 
	C495.438904,531.290894 496.068359,529.313782 497.472321,527.508484 
	C498.947968,525.610962 500.587341,523.631165 503.204468,524.383118 
	C506.073883,525.207642 506.084442,527.758606 505.497467,530.167725 
	C504.863922,532.768005 506.243042,534.065613 508.137085,535.477356 
	C514.412903,540.155212 514.851624,541.946106 511.425140,548.856934 
	C509.283020,553.177429 506.782837,557.319946 504.618286,561.630127 
	C503.930420,562.999756 502.682404,564.777222 504.494720,566.155701 
	C506.080017,567.361572 507.696289,566.289124 509.134949,565.471436 
	C514.635376,562.344849 518.543274,557.522034 522.160706,552.550293 
	C526.263916,546.911011 529.298767,540.620911 532.234985,534.404663 
	C530.747314,532.586792 528.864929,533.479248 527.366150,532.930542 
	C526.073669,532.457397 524.720276,532.017334 524.783691,530.346741 
	C524.842468,528.796387 525.961487,528.061707 527.368225,527.720764 
	C527.529907,527.681519 527.699646,527.614929 527.858093,527.631653 
	C536.223877,528.519165 539.242432,522.471130 542.419983,516.520203 
	C543.670837,514.177429 545.078308,511.877838 546.714600,509.794312 
	C547.990784,508.169403 549.891296,507.114960 551.976013,508.456268 
	C554.056946,509.795166 553.930054,511.804626 552.897461,513.759216 
	C550.743225,517.836853 548.512634,521.874084 545.867004,526.750793 
	C549.971069,526.750793 553.402039,526.712708 556.831604,526.767334 
	C558.464783,526.793335 560.519104,526.602478 560.602295,528.964905 
	C560.678101,531.119995 558.712769,531.660706 557.106995,531.811523 
	C553.630615,532.138000 550.124512,532.241028 546.630127,532.250549 
	C544.099609,532.257446 542.041504,532.855713 540.823242,535.275391 
	C536.783936,543.298035 531.997375,550.963257 529.218323,559.587769 
	C528.501282,561.813110 527.322449,564.355957 529.528870,566.078796 
	C531.718506,567.788574 534.445251,566.898438 536.569031,565.517578 
	C543.325134,561.124939 549.365601,555.889526 553.782227,549.062622 
	C556.401550,545.013977 558.729309,540.774231 561.118408,536.580688 
	C561.958923,535.105408 562.872742,533.750671 564.351746,532.862610 
	C566.157532,531.778381 568.003601,531.078613 569.871460,532.694153 
	C571.795105,534.357910 570.574707,536.076599 569.761841,537.645813 
	C566.239502,544.445312 561.863464,550.788025 558.911011,557.893494 
	C558.400940,559.121094 557.801147,560.343384 557.527039,561.628723 
	C557.220337,563.067078 556.874084,564.717773 558.131470,565.881165 
	C559.708557,567.340515 561.354370,566.268555 562.725281,565.459351 
	C567.943420,562.379395 572.286682,558.184631 576.269836,553.720032 
	C582.817566,546.380920 588.828430,538.603638 593.675659,529.985901 
	C594.560425,528.412903 595.670044,526.897278 596.952209,525.636108 
	C598.241760,524.367615 600.029724,524.395691 601.637329,525.111816 
	C603.309265,525.856628 603.667297,527.511841 603.065979,528.936279 
	C600.188354,535.752930 601.467163,542.658203 602.203003,549.609192 
	C602.621521,553.562622 602.437073,557.564697 601.625427,561.537537 
	C608.740845,560.959900 619.443970,546.093811 623.465515,533.716614 
	C622.545959,532.500854 621.037903,532.997437 619.843018,532.573120 
	C618.494202,532.094116 616.564148,532.373474 616.791687,530.141907 
	C616.980103,528.294189 618.514282,527.669128 620.066895,527.711975 
	C626.673462,527.894409 630.130981,524.013672 632.917969,518.631104 
	C634.654419,515.277588 636.571777,511.876587 639.586914,509.348572 
	C641.224121,507.975861 643.061462,506.931641 644.998779,508.331055 
	C647.165771,509.896301 646.070801,511.889984 645.046082,513.661621 
	C642.760437,517.613098 640.431763,521.539734 637.975098,525.724304 
	C642.433167,527.732483 646.745056,525.722717 650.119934,528.245422 
	C652.373840,526.027100 653.888306,522.395081 657.502808,524.089294 
	C660.847351,525.656921 659.468567,528.912964 658.768555,531.816467 
	C659.216675,532.143311 659.611084,532.428467 660.002869,532.717163 
	C668.799072,539.197449 669.329285,541.504883 664.136841,550.838074 
	C662.274292,554.185913 660.284241,557.468018 658.555115,560.882812 
	C657.766052,562.441101 656.759033,564.165649 658.010193,566.307068 
	C661.093567,566.968384 663.119751,564.733948 665.331299,563.194824 
	C673.319092,557.635742 676.912048,548.757996 681.914673,540.952820 
	C683.440613,538.571899 684.691711,536.012695 686.252075,533.656616 
	C687.771729,531.362000 689.948792,530.899414 692.345093,532.278992 
	C695.097168,533.863281 693.893555,535.820862 692.774780,537.796265 
	C688.918518,544.605652 684.821899,551.299805 682.112549,558.687988 
	C681.330627,560.820068 679.889160,563.452271 682.198669,565.121765 
	C684.454834,566.752747 686.629211,564.664673 688.462708,563.343445 
	C696.256409,557.727295 701.008850,549.671936 705.640930,541.542847 
	C707.040955,539.085815 708.294983,536.539917 709.798523,534.149597 
	C710.807434,532.545532 712.293945,531.210449 714.383179,532.081177 
	C716.453125,532.943909 716.523682,534.980652 716.248352,536.806274 
	C716.005371,538.416870 715.473877,540.039673 714.772339,541.515686 
	C711.770203,547.832581 708.608398,554.073669 705.618408,560.396118 
	C704.796997,562.132996 703.635010,563.863403 704.168457,566.754944 
	C710.445007,563.273804 715.431641,558.919922 719.740112,553.606201 
	C721.213745,551.788696 722.278870,547.548218 725.428894,549.837219 
	C727.884888,551.621887 725.703796,554.803528 724.193542,556.961426 
	C719.408691,563.797913 712.930115,568.764343 705.679016,572.657043 
	C701.675781,574.806152 698.862610,577.564392 697.084412,581.840637 
	C693.859863,589.594849 689.418640,596.681030 682.990540,602.228638 
	C678.723206,605.911377 673.920593,608.571106 667.919067,606.741821 
	C662.614563,605.124939 660.510559,601.205566 662.194702,595.906006 
	C663.790955,590.883240 667.557190,587.550781 671.626343,584.583801 
	C676.215942,581.237366 681.122742,578.315857 686.376892,576.207031 
	C691.387878,574.195740 694.937256,571.184448 696.085571,565.722534 
	C694.642395,565.238037 694.248840,566.867065 693.279846,567.399780 
	C692.266479,567.956909 691.388977,568.757690 690.437622,569.431641 
	C681.625122,575.674438 676.867615,574.529602 672.525757,564.890991 
	C669.467834,567.185486 666.528748,569.555664 663.421814,571.680298 
	C659.560425,574.320923 655.270325,575.320923 651.426086,572.069397 
	C647.738953,568.950684 648.287415,564.731384 649.748901,560.535339 
	C651.529236,555.424255 654.407654,550.976746 657.644470,546.716675 
	C659.330200,544.497986 660.286499,542.211182 657.202820,540.463867 
	C654.133179,538.724426 653.590088,541.699463 652.566895,543.369629 
	C646.463135,553.333252 640.361389,563.284729 630.433716,570.612793 
M621.110168,565.240356 
	C622.806213,567.438538 624.761536,566.587769 626.386719,565.378662 
	C628.780090,563.598022 631.103577,561.660889 633.169495,559.513916 
	C639.893066,552.526733 646.034424,545.097107 649.788635,535.995605 
	C650.741943,533.684387 651.205933,531.609253 647.621765,531.584839 
	C634.420349,531.494995 633.792786,531.888794 627.680359,544.128357 
	C625.225220,549.044556 622.793274,553.971924 621.241028,559.277344 
	C620.726013,561.037537 619.986755,562.748840 621.110168,565.240356 
M457.685577,532.152527 
	C456.703583,533.624023 455.099792,534.847107 455.797943,537.269531 
	C457.027954,537.767517 458.547455,538.099609 459.735687,538.914551 
	C464.061371,541.881409 465.973938,539.662537 467.266083,535.687256 
	C468.662445,531.391235 470.834259,527.461182 472.997620,523.513916 
	C475.543884,518.867981 477.885651,514.109985 480.316101,509.400604 
	C471.292023,515.443970 464.024506,522.857300 457.685577,532.152527 
M593.813782,556.244446 
	C593.709106,552.545044 594.085327,548.799927 592.844604,543.976196 
	C588.829651,549.869385 585.256653,554.796692 582.051514,559.952576 
	C580.453857,562.522644 581.205078,565.265747 583.752502,566.931519 
	C586.202942,568.533936 588.494019,567.546875 590.410034,565.559631 
	C592.676392,563.208984 594.304382,560.608459 593.813782,556.244446 
M681.436279,593.925232 
	C684.542114,590.473694 687.034363,586.623657 688.888062,582.181641 
	C684.424133,584.395447 680.180664,586.878418 676.033997,589.513794 
	C673.934937,590.847839 671.811401,592.268433 670.436401,594.418396 
	C669.398010,596.041931 667.800781,597.840576 669.672180,599.762329 
	C671.302979,601.437073 673.178040,600.402344 674.673218,599.369934 
	C676.856079,597.862549 678.857727,596.092834 681.436279,593.925232 
z"/>
<path fill="#000000" opacity="1.000000" stroke="none" 
	d="
M506.705078,105.336899 
	C492.022705,103.621536 478.398712,99.243103 464.610901,95.569916 
	C463.118408,95.172318 461.612122,94.577789 462.245728,92.517189 
	C462.818329,90.654922 463.047943,88.157036 465.703400,88.320976 
	C471.261719,88.664116 472.687408,85.051758 473.792816,80.717987 
	C478.018982,64.149452 482.259918,47.583679 486.683685,31.067327 
	C487.676910,27.359156 487.610962,24.742905 483.492371,23.163523 
	C481.337952,22.337360 480.110321,20.578140 481.246155,17.925743 
	C482.142609,15.832351 483.633118,15.248034 485.642181,15.716121 
	C500.502106,19.178263 515.793945,21.198109 529.639587,28.156578 
	C556.649475,41.730988 561.102417,76.474213 538.376038,96.476410 
	C529.443604,104.338104 518.684509,106.375053 506.705078,105.336899 
M501.451233,41.847702 
	C497.630951,56.990978 493.824829,72.137856 489.971954,87.272835 
	C489.505157,89.106499 488.915955,90.660004 491.135986,91.965981 
	C500.611115,97.539856 516.783569,95.104149 523.872742,86.700691 
	C529.471619,80.063820 532.529968,72.265671 534.015381,63.708176 
	C536.430969,49.792034 530.470520,38.194817 517.113892,33.564034 
	C501.978729,28.316647 505.733612,28.332994 501.451233,41.847702 
z"/>
<path fill="#000000" opacity="1.000000" stroke="none" 
	d="
M216.131958,145.235596 
	C213.558624,146.503052 211.328293,147.624115 209.104828,148.758652 
	C207.588272,149.532516 206.048721,150.400726 204.660294,148.604614 
	C203.278793,146.817459 202.846573,144.603180 204.679947,143.210007 
	C209.514877,139.535873 207.404541,136.091583 205.191925,132.054077 
	C197.589249,118.181000 190.167542,104.206329 182.866821,90.171570 
	C180.455475,85.536026 178.208618,81.516586 171.952988,84.519409 
	C169.402496,85.743698 168.313354,83.542152 167.355896,81.874756 
	C166.221802,79.899780 167.802734,78.644943 169.222107,77.867592 
	C182.776199,70.444389 195.328751,61.062050 210.179657,56.173298 
	C220.131485,52.897274 228.702347,55.559986 233.861694,62.810432 
	C239.737640,71.067924 239.912354,82.521271 234.271667,90.455940 
	C233.519165,91.514473 232.713470,92.535187 231.666397,93.927010 
	C240.736893,97.624016 248.737457,102.641541 256.948914,107.280212 
	C259.539062,108.743408 262.339722,109.849686 265.495239,109.672729 
	C270.845581,109.372719 270.848907,109.432053 272.939819,115.018089 
	C264.651794,122.096352 252.102127,123.792061 243.001205,118.745216 
	C236.453018,115.113976 230.127930,111.081139 223.689743,107.250259 
	C222.120132,106.316299 220.563492,105.298996 218.640656,105.237968 
	C216.589386,105.172844 214.491547,105.356094 213.129776,107.014008 
	C211.634232,108.834770 213.229294,110.481140 214.028503,112.019722 
	C216.638000,117.043320 219.473572,121.951851 221.999146,127.015869 
	C223.626907,130.279709 225.697510,131.587585 229.150238,129.786407 
	C231.512848,128.553925 233.305756,128.275024 234.630219,131.477859 
	C235.822449,134.360947 235.094070,135.682571 232.498306,136.933640 
	C227.100815,139.535049 221.811600,142.361176 216.131958,145.235596 
M221.502045,89.704002 
	C224.016129,83.069885 222.076065,74.791519 216.411057,70.392685 
	C211.046097,66.226845 205.475250,68.059364 200.129669,70.894394 
	C199.106354,71.437111 198.182007,72.177055 197.137421,72.666954 
	C194.626343,73.844597 194.254333,75.539040 195.566513,77.881645 
	C197.752762,81.784706 199.854080,85.735245 202.000778,89.660538 
	C208.097229,100.808113 210.574005,101.114655 219.811935,91.858643 
	C220.278320,91.391335 220.666718,90.846191 221.502045,89.704002 
z"/>
<path fill="#000000" opacity="1.000000" stroke="none" 
	d="
M87.906967,170.804184 
	C104.266602,172.907257 117.274628,179.671417 124.897598,194.427261 
	C130.934006,206.111984 130.990707,218.176498 125.271225,229.977966 
	C119.453629,241.981903 111.894020,252.979385 104.577263,264.104279 
	C103.245438,266.129272 101.528481,266.577332 99.429527,266.032837 
	C97.056702,265.417358 96.971947,263.623260 97.518074,261.672943 
	C98.260002,259.023468 96.606010,257.678528 94.757973,256.394287 
	C79.588593,245.852646 64.419395,235.310715 49.260880,224.753479 
	C45.910297,222.419952 42.726616,222.644119 39.702190,225.293396 
	C38.316246,226.507462 36.951248,227.196472 35.294586,225.822800 
	C33.489326,224.325928 33.746891,222.633713 34.951057,220.970749 
	C43.824085,208.717209 50.558475,194.992340 60.825459,183.688156 
	C68.014435,175.772934 76.711365,171.232803 87.906967,170.804184 
M84.988052,188.453873 
	C72.174583,186.668259 63.790722,192.970428 57.563469,203.358032 
	C56.134773,205.741226 56.068062,207.520813 58.501167,209.301163 
	C73.397835,220.201279 88.687737,230.527588 104.065506,240.728302 
	C106.229813,242.163986 108.291008,242.017700 109.742065,239.882812 
	C118.221588,227.407196 121.138634,214.835175 110.511070,202.492538 
	C103.957817,194.881714 95.697090,190.320831 84.988052,188.453873 
z"/>
<path fill="#000000" opacity="1.000000" stroke="none" 
	d="
M312.429657,54.550583 
	C317.838959,58.691025 322.965271,62.612534 328.180145,66.601776 
	C329.406555,64.315613 328.070526,62.505333 327.643158,60.685322 
	C325.403198,51.146130 323.003204,41.644638 320.690186,32.122433 
	C319.837402,28.611732 318.511902,25.881325 314.067932,26.323240 
	C311.635345,26.565142 309.789825,25.199476 309.506561,22.681751 
	C309.202209,19.976444 311.091858,18.919300 313.449402,18.466686 
	C319.481415,17.308620 325.510956,16.137697 331.539215,14.960135 
	C333.729187,14.532349 335.026367,15.594041 335.826447,17.486538 
	C336.743439,19.655563 335.836182,20.898933 333.796967,21.740446 
	C330.621643,23.050804 330.021576,25.344294 330.822571,28.639660 
	C335.838135,49.273323 340.705872,69.942963 345.605682,90.604691 
	C346.070862,92.566162 347.722076,94.682533 345.015961,96.345024 
	C342.052490,98.165588 339.389008,98.409576 336.371643,96.001785 
	C325.183563,87.073906 313.933929,78.215698 302.504913,69.599945 
	C294.964661,63.915733 287.561676,58.064156 279.872223,51.435333 
	C279.341980,55.412945 280.837402,58.294319 281.543884,61.164280 
	C284.321808,72.449516 287.532349,83.627747 290.523865,94.861252 
	C291.384399,98.092537 292.787750,100.524590 296.684143,99.638565 
	C299.562347,98.984077 299.947388,101.037697 300.683685,102.911987 
	C301.639740,105.345757 300.027039,106.445320 298.304749,107.060638 
	C292.359680,109.184608 286.356934,111.152588 280.339478,113.064537 
	C278.842224,113.540268 277.391052,113.253609 276.562347,111.548294 
	C275.703949,109.781837 275.089264,107.886826 276.883911,106.561050 
	C281.248077,103.337112 280.360779,99.337296 279.226746,94.997116 
	C275.112213,79.250130 271.175323,63.456821 267.120636,47.694038 
	C265.345795,40.794094 264.875916,40.415287 257.652405,40.397236 
	C255.470886,40.391785 254.185410,39.689037 253.666580,37.548466 
	C253.117096,35.281456 254.182785,34.014446 256.197571,33.423672 
	C262.730255,31.508179 269.270111,29.615023 275.830627,27.798040 
	C277.589813,27.310829 278.992188,28.251831 280.361481,29.334024 
	C290.936462,37.691971 301.547089,46.004814 312.429657,54.550583 
z"/>
<path fill="#000000" opacity="1.000000" stroke="none" 
	d="
M160.260391,187.581146 
	C133.413986,193.010010 106.410255,172.251038 104.831856,145.388123 
	C103.826454,128.277100 120.015221,108.057823 137.725143,103.664009 
	C165.810715,96.696007 192.082291,119.283669 192.113525,146.820251 
	C192.133560,164.471817 177.781189,183.023254 160.260391,187.581146 
M129.287216,119.653931 
	C122.179962,125.126930 119.270859,132.468994 120.538239,141.182144 
	C122.612343,155.441299 137.566635,171.068008 151.787292,174.331024 
	C165.840378,177.555588 179.260849,166.495895 177.511551,153.202301 
	C175.751648,139.827972 168.942749,129.544464 158.013336,122.052246 
	C149.293793,116.074913 139.911819,113.717110 129.287216,119.653931 
z"/>
<path fill="#000000" opacity="1.000000" stroke="none" 
	d="
M686.676392,218.896317 
	C685.504395,196.796219 707.902466,180.104248 724.071472,177.722794 
	C745.620544,174.548965 759.130859,182.317245 770.113342,203.610764 
	C770.723633,204.794067 771.285156,206.004547 771.823547,207.222626 
	C777.912109,220.997910 776.061462,225.607132 762.143982,231.364792 
	C759.399841,232.500061 756.580933,230.011078 757.008362,226.663177 
	C757.149170,225.560410 757.778931,224.470367 758.365784,223.481827 
	C764.718140,212.782120 762.081421,202.025757 751.253296,195.445602 
	C745.207092,191.771362 738.727905,190.158829 731.677246,192.450867 
	C718.137024,196.852539 706.874390,204.033920 701.643188,218.026779 
	C698.093323,227.522339 701.516968,238.220764 709.428894,244.517227 
	C711.611450,246.254150 713.626343,247.009171 716.138733,245.131943 
	C718.265930,243.542480 720.528503,242.119400 722.809570,240.753769 
	C727.065369,238.206024 728.827148,235.018997 726.933228,229.919113 
	C725.832825,226.955917 727.621094,224.539719 731.033081,222.755646 
	C737.413391,231.147202 744.786499,238.758682 750.237732,248.048523 
	C747.344238,251.169754 744.799988,253.466553 740.784058,250.209579 
	C738.875122,248.661392 737.440125,250.456009 736.001648,251.534729 
	C732.554382,254.119888 729.762878,257.473145 725.786194,259.477936 
	C721.743652,261.515900 718.000183,261.715942 713.859375,259.845978 
	C696.388000,251.956009 688.454895,237.744110 686.676392,218.896317 
z"/>
<path fill="#000000" opacity="1.000000" stroke="none" 
	d="
M570.325317,114.163147 
	C567.638611,117.886772 568.467712,120.137657 572.383362,121.632156 
	C574.550354,122.459229 576.613953,123.598236 578.640686,124.744263 
	C584.985474,128.332077 591.005188,129.861740 597.248169,124.104683 
	C600.369019,121.226730 602.958191,123.786125 605.359985,126.872414 
	C601.387573,131.813934 597.434326,136.707962 593.509827,141.624985 
	C591.892639,143.651169 590.119141,143.287750 588.220581,142.118912 
	C573.735046,133.201035 558.279175,126.107597 543.258484,118.195580 
	C541.375916,117.203941 539.060913,116.305794 540.548828,113.352760 
	C541.775818,110.917587 543.227478,109.182060 546.396729,110.498611 
	C550.225647,112.089233 552.473328,110.400192 554.274963,106.865776 
	C562.442200,90.843361 570.738037,74.885414 579.139465,58.984497 
	C580.691528,56.046917 580.539368,54.054047 577.631775,52.330574 
	C574.766846,50.632290 576.543030,48.704380 577.436584,46.792229 
	C578.571350,44.364006 580.269592,44.988300 582.002747,45.868893 
	C596.547607,53.259239 611.088257,60.657963 625.618286,68.077339 
	C626.650879,68.604591 627.675232,69.250870 628.030334,70.478073 
	C628.575684,72.362411 622.243042,84.580849 620.400146,85.090157 
	C618.078369,85.731789 615.980347,84.876572 615.949036,82.494240 
	C615.827026,73.218979 608.988831,69.932220 602.261597,66.444328 
	C600.513184,65.537804 598.747498,64.664543 596.476990,63.516808 
	C592.710449,70.948326 589.056946,78.156860 585.106873,85.950577 
	C591.557922,88.436157 596.512451,94.479401 604.182617,89.953880 
	C605.663757,89.079987 607.865967,89.303131 609.309265,90.798409 
	C611.027649,92.578712 609.595886,94.234467 608.787048,95.789444 
	C606.253174,100.660820 603.643555,105.493019 601.037476,110.326485 
	C600.134827,112.000389 599.117432,113.547028 596.774353,112.756516 
	C594.568359,112.012260 593.214966,110.488579 593.993958,108.219635 
	C595.577881,103.605995 592.911804,101.376572 589.535156,99.451813 
	C586.797852,97.891495 583.999390,96.438416 580.536621,94.563324 
	C577.165039,101.018059 573.818604,107.424660 570.325317,114.163147 
z"/>
<path fill="#000000" opacity="1.000000" stroke="none" 
	d="
M379.523712,67.384262 
	C374.101288,67.305466 371.486206,69.946243 370.615631,74.660873 
	C369.989441,78.052216 368.025391,81.123093 367.973999,84.994080 
	C372.313477,85.690010 375.150818,87.630165 374.105682,92.978569 
	C366.089722,93.873016 358.114014,94.762978 350.243286,95.641228 
	C348.509705,90.351570 348.470947,86.733292 354.615509,85.605705 
	C357.697174,85.040184 357.826355,81.598473 358.572418,79.149445 
	C365.251373,57.223591 372.028168,35.323772 378.309601,13.283309 
	C379.824310,7.968543 383.266357,8.089398 387.292847,7.509044 
	C391.571289,6.892367 392.105988,9.752990 393.298615,12.547419 
	C402.633850,34.420643 412.042084,56.262791 421.470520,78.096062 
	C422.460449,80.388336 423.684998,82.522842 426.232269,83.613647 
	C428.533112,84.598930 429.240692,86.832848 428.871155,89.005447 
	C428.528564,91.019768 426.370850,90.944923 424.768463,91.046539 
	C417.141968,91.530205 409.509399,91.918266 401.878906,92.339340 
	C399.756378,92.456474 397.767639,92.213814 397.200012,89.702782 
	C396.672302,87.368477 398.544312,86.183868 400.106903,85.609657 
	C404.298065,84.069466 403.966736,81.500526 402.670410,78.105179 
	C398.380829,66.869881 398.446564,66.852638 386.458282,67.280411 
	C384.296295,67.357544 382.131012,67.341614 379.523712,67.384262 
M383.138794,33.143932 
	C380.119141,41.317127 377.359741,49.559566 375.743866,58.242603 
	C380.955322,59.173397 385.371765,57.999390 389.827850,57.701187 
	C392.749115,57.505684 393.049377,55.954174 392.070923,53.602055 
	C389.201172,46.703350 386.366699,39.789963 383.138794,33.143932 
z"/>
<path fill="#000000" opacity="1.000000" stroke="none" 
	d="
M630.283875,172.041763 
	C617.355713,167.039230 609.908264,157.526627 605.481201,145.209549 
	C604.814697,143.355331 604.657166,141.784988 605.929871,140.078232 
	C609.105957,135.818756 612.206665,131.518799 617.035950,128.949768 
	C619.368713,130.042435 620.757507,131.924744 622.815308,133.921539 
	C617.791077,140.465225 618.000183,147.309143 622.424500,154.143265 
	C624.576233,157.467056 627.407288,160.017105 631.219360,161.147018 
	C635.545288,162.429199 639.881470,162.492538 643.390564,159.095520 
	C646.844666,155.751709 647.260315,151.589432 646.049500,147.092896 
	C644.250488,140.412064 640.390137,134.708740 637.395203,128.596619 
	C635.627930,124.989807 634.173523,121.306000 633.693481,117.284286 
	C631.493408,98.849846 649.520996,87.383698 668.315674,95.753372 
	C676.860657,99.558670 683.294617,106.122520 688.153687,114.174217 
	C689.123291,115.780815 689.517029,117.208618 688.213318,118.718262 
	C684.628723,122.868858 681.043518,127.019531 677.404907,131.122528 
	C676.342224,132.320801 675.056213,132.250870 673.877747,131.202179 
	C671.995544,129.527359 672.682617,127.760323 673.494385,125.778244 
	C676.876221,117.520607 674.196472,109.295654 666.784668,105.090149 
	C662.763123,102.808350 658.590820,102.241364 654.574402,105.088882 
	C650.330627,108.097626 651.072388,112.134384 652.423523,116.319283 
	C653.815674,120.631218 655.947083,124.567085 658.196899,128.458572 
	C661.901733,134.866745 664.788513,141.638000 665.118774,149.085754 
	C665.911621,166.962006 646.783447,179.337799 630.283875,172.041763 
z"/>
<path fill="#000000" opacity="1.000000" stroke="none" 
	d="
M69.715302,288.436768 
	C64.581543,287.540924 61.842594,289.569519 60.185951,293.988922 
	C58.438404,298.650879 56.292236,303.174011 54.128517,307.665436 
	C52.752087,310.522614 53.287697,312.729126 55.549030,314.787506 
	C58.594410,317.559601 61.567173,320.411469 64.549576,323.208893 
	C67.121964,321.929657 67.935135,319.710663 68.935081,317.638733 
	C69.886780,315.666779 71.072235,314.159760 73.571266,315.347687 
	C75.902664,316.455872 76.717430,317.989838 75.481064,320.564636 
	C72.744606,326.263428 70.255074,332.080658 67.527237,337.783783 
	C66.804817,339.294159 66.265617,341.707367 63.758656,340.826172 
	C61.537239,340.045349 59.149601,338.598419 59.532711,335.914886 
	C60.110519,331.867523 57.593407,329.777008 55.230709,327.471375 
	C40.338520,312.938843 25.410435,298.443054 10.529314,283.899231 
	C6.476716,279.938507 6.607864,271.969574 10.651893,268.016083 
	C12.459007,266.249451 14.650756,266.651703 16.782749,266.920135 
	C37.744587,269.559204 58.891148,269.732239 79.908203,271.646271 
	C83.358414,271.960449 86.814049,271.962585 90.205063,270.483368 
	C92.396980,269.527222 95.024063,270.100067 96.676674,271.837219 
	C98.167717,273.404510 96.711372,275.325592 95.989655,276.938385 
	C93.270744,283.014191 90.483284,289.059845 87.662743,295.089325 
	C86.661812,297.229034 85.530617,299.498840 82.556915,298.835358 
	C79.864807,298.234650 79.560043,296.012146 79.696106,293.724274 
	C79.872299,290.761505 78.335953,289.512878 75.567833,289.255890 
	C73.749939,289.087097 71.948799,288.737885 69.715302,288.436768 
M26.148140,285.473755 
	C31.897793,292.518555 38.486038,298.655029 46.184963,304.406067 
	C48.865250,298.711456 51.496758,293.531982 53.066307,287.296295 
	C43.710247,286.487244 35.008469,285.734741 26.148140,285.473755 
z"/>
<path fill="#000000" opacity="1.000000" stroke="none" 
	d="
M673.521362,201.688599 
	C675.246765,203.693283 677.382751,205.458801 674.591919,207.743591 
	C672.277527,209.638336 669.929077,210.174332 667.587463,207.556747 
	C662.367737,201.721893 656.079712,196.924149 651.201599,190.750732 
	C649.558350,188.671127 648.435425,186.624832 650.451599,184.057358 
	C652.721985,181.166214 654.581482,183.251389 656.423584,184.458572 
	C658.494934,185.815994 660.115051,185.376495 661.733948,183.737854 
	C674.847656,170.464035 687.978149,157.206772 701.105164,143.946030 
	C703.249268,141.780029 703.872925,139.656555 701.601929,137.027084 
	C699.558533,134.661102 698.778503,131.842270 701.805237,129.643875 
	C704.738159,127.513596 706.294373,130.326675 707.990662,131.954773 
	C713.515747,137.257553 719.017639,142.586655 724.417908,148.015625 
	C725.780945,149.385818 727.500549,151.028839 726.657471,153.229126 
	C725.717468,155.682129 723.859741,157.311386 721.262939,155.219543 
	C717.841309,152.463257 715.496155,154.240021 713.104614,156.647476 
	C702.067627,167.758041 691.026978,178.865067 679.970886,189.956573 
	C677.737366,192.197205 675.510132,194.455276 673.134399,196.539413 
	C671.074524,198.346481 671.354309,199.871750 673.521362,201.688599 
z"/>
<path fill="#000000" opacity="1.000000" stroke="none" 
	d="
M573.072998,516.660889 
	C575.761230,515.346802 578.017822,515.268433 579.603699,517.615479 
	C581.088684,519.813354 579.909363,521.749512 578.457092,523.465027 
	C576.755249,525.475342 574.635132,526.899658 571.923706,526.064880 
	C569.679565,525.373962 569.037354,523.554260 569.648254,521.263672 
	C570.145508,519.398865 571.265076,518.023132 573.072998,516.660889 
z"/>
</svg>